<?xml version="1.0" standalone="no"?>
<!DOCTYPE svg PUBLIC "-//W3C//DTD SVG 1.1//EN" "http://www.w3.org/Graphics/SVG/1.1/DTD/svg11.dtd" >
<svg>
<metadata>
Created by FontForge 20110222 at Fri Aug 14 12:28:39 2015
 By www-data
2000 by Siemens AG
</metadata>
<defs>
<font id="SiemensSans-Roman" horiz-adv-x="1180" vert-adv-y="2048" >
  <font-face 
    font-family="Siemens Sans"
    font-weight="400"
    font-stretch="normal"
    units-per-em="2048"
    panose-1="0 0 0 0 0 0 0 0 0 0"
    ascent="1556"
    descent="-492"
    x-height="1038"
    cap-height="1417"
    bbox="-258 -461 2150 1858"
    underline-thickness="125"
    underline-position="-241"
    unicode-range="U+0020-EA6E"
  />
<missing-glyph horiz-adv-x="512" vert-adv-y="2458" 
d="M51 0v1417h410v-1417h-410zM410 51v1315h-308v-1315h308z" />
    <glyph glyph-name=".notdef" horiz-adv-x="512" vert-adv-y="2458" 
d="M51 0v1417h410v-1417h-410zM410 51v1315h-308v-1315h308z" />
    <glyph glyph-name="glyph1" horiz-adv-x="0" vert-adv-y="0" 
 />
    <glyph glyph-name="glyph2" horiz-adv-x="512" vert-adv-y="2458" 
 />
    <glyph glyph-name="space" unicode=" " horiz-adv-x="512" vert-adv-y="2458" 
 />
    <glyph glyph-name="space" unicode="&#x201b;" horiz-adv-x="512" vert-adv-y="2458" 
 />
    <glyph glyph-name="space" unicode="&#xa0;" horiz-adv-x="512" vert-adv-y="2458" 
 />
    <glyph glyph-name="exclam" unicode="!" horiz-adv-x="635" vert-adv-y="2458" 
d="M424 375h-131l-18 950h168zM361 222q49 0 83 -33q36 -35 36 -88q0 -52 -36 -88q-34 -33 -85 -33t-85 33q-36 36 -36 88q0 53 36 88q35 33 87 33z" />
    <glyph glyph-name="quotedbl" unicode="&#x22;" horiz-adv-x="664" vert-adv-y="2458" 
d="M112 1034l-10 459h164l-10 -459h-144zM407 1038l-10 459h164l-10 -459h-144z" />
    <glyph glyph-name="numbersign" unicode="#" vert-adv-y="2458" 
d="M238 0l59 424h-185v119h202l46 333h-182v119h199l59 422h122l-59 -422h262l59 422h123l-59 -422h184v-119h-200l-47 -333h182v-119h-199l-59 -424h-123l60 424h-262l-59 -424h-123zM437 543h261l47 333h-262z" />
    <glyph glyph-name="dollar" unicode="$" vert-adv-y="2458" 
d="M177 43l20 143q184 -73 336 -75v553q-175 80 -220 111q-151 105 -151 280q0 139 78 236q95 117 293 142v152h102v-148q130 -4 305 -63l-33 -147q-133 70 -272 79v-507q149 -63 212 -109q159 -115 159 -310q0 -147 -85 -249q-95 -114 -286 -145v-160h-102v154
q-172 2 -356 63zM533 1300q-52 -12 -85 -29q-120 -62 -120 -187q0 -91 71 -157q45 -41 134 -83v456zM635 121q205 52 205 246q0 118 -90 186q-32 24 -115 64v-496z" />
    <glyph glyph-name="percent" unicode="%" horiz-adv-x="1544" vert-adv-y="2458" 
d="M368 1429q175 0 241 -147q42 -92 42 -254q0 -182 -53 -276q-69 -126 -235 -126q-178 0 -245 147q-42 92 -42 255q0 181 52 276q70 125 240 125zM362 1335q-88 0 -129 -97q-30 -69 -30 -211q0 -307 161 -307q160 0 160 308q0 307 -162 307zM435 -41l559 1499h120
l-559 -1499h-120zM1186 791q175 0 241 -147q42 -93 42 -254q0 -181 -53 -276q-69 -126 -235 -126q-179 0 -246 147q-42 92 -42 255q0 181 53 276q69 125 240 125zM1179 697q-88 0 -129 -97q-30 -70 -30 -211q0 -307 161 -307t161 308q0 307 -163 307z" />
    <glyph glyph-name="ampersand" unicode="&#x26;" horiz-adv-x="1374" vert-adv-y="2458" 
d="M1098 0l-110 135q-76 -67 -144 -99q-119 -56 -276 -56q-181 0 -294 82q-149 106 -149 298q0 185 139 303q63 53 174 105q-59 68 -95 121q-77 116 -77 229q0 141 100 231q99 88 265 88q171 0 272 -87q94 -82 94 -225q0 -179 -153 -285q-58 -40 -189 -98l333 -388
q62 81 97 193q30 100 37 198h150q-18 -167 -65 -290q-37 -93 -119 -211l204 -244h-194zM580 837l26 12q107 49 171 111q56 54 56 147t-49 141q-57 57 -153 57q-95 0 -150 -54q-51 -51 -51 -133q0 -124 150 -281zM512 680q-94 -53 -142 -108q-71 -82 -71 -196q0 -134 94 -202
q82 -59 197 -59q176 0 303 124z" />
    <glyph glyph-name="quotesingle" unicode="'" horiz-adv-x="369" vert-adv-y="2458" 
d="M112 1038l-10 459h164l-10 -459h-144z" />
    <glyph glyph-name="parenleft" unicode="(" horiz-adv-x="737" vert-adv-y="2458" 
d="M660 -231l-78 -86q-117 100 -214 245q-214 319 -214 695q0 375 214 694q96 144 214 246l78 -86q-92 -89 -171 -224q-171 -291 -171 -630q0 -338 171 -630q77 -133 171 -224z" />
    <glyph glyph-name="parenright" unicode=")" horiz-adv-x="737" vert-adv-y="2458" 
d="M78 1477l78 86q117 -101 214 -246q214 -319 214 -695q0 -375 -214 -694q-96 -144 -214 -245l-78 86q92 89 171 223q171 291 171 631q0 338 -171 630q-77 132 -171 224z" />
    <glyph glyph-name="asterisk" unicode="*" vert-adv-y="2458" 
d="M201 1154l49 152l285 -117l-25 308h160l-27 -308l287 117l49 -152l-295 -71l191 -221l-129 -94l-156 252l-156 -252l-129 94l191 221z" />
    <glyph glyph-name="plus" unicode="+" vert-adv-y="2458" 
d="M529 457h-457v123h457v458h123v-458h456v-123h-456v-457h-123v457z" />
    <glyph glyph-name="comma" unicode="," horiz-adv-x="590" vert-adv-y="2458" 
d="M233 209h198l-177 -459h-161z" />
    <glyph glyph-name="hyphen" unicode="-" horiz-adv-x="637" vert-adv-y="2458" 
d="M82 510v125h473v-125h-473z" />
    <glyph glyph-name="hyphen" unicode="&#x2011;" horiz-adv-x="637" vert-adv-y="2458" 
d="M82 510v125h473v-125h-473z" />
    <glyph glyph-name="hyphen" unicode="&#x2010;" horiz-adv-x="637" vert-adv-y="2458" 
d="M82 510v125h473v-125h-473z" />
    <glyph glyph-name="hyphen" unicode="&#xad;" horiz-adv-x="637" vert-adv-y="2458" 
d="M82 510v125h473v-125h-473z" />
    <glyph glyph-name="period" unicode="." horiz-adv-x="590" vert-adv-y="2458" 
d="M297 222q49 0 83 -33q36 -35 36 -88q0 -52 -36 -88q-34 -33 -85 -33t-85 33q-36 36 -36 88q0 53 36 88q35 33 87 33z" />
    <glyph glyph-name="slash" unicode="/" horiz-adv-x="545" vert-adv-y="2458" 
d="M61 -41l287 1499h135l-287 -1499h-135z" />
    <glyph glyph-name="zero" unicode="0" vert-adv-y="2458" 
d="M597 1437q480 0 480 -728q0 -326 -92 -501q-121 -228 -395 -228q-298 0 -415 268q-73 168 -73 462q0 325 92 499q121 228 403 228zM585 1302q-102 0 -179 -67q-138 -120 -138 -527q0 -298 69 -433q81 -160 253 -160q186 0 265 189q56 132 56 406q0 298 -69 432
q-81 160 -257 160z" />
    <glyph glyph-name="one" unicode="1" vert-adv-y="2458" 
d="M575 0v1239l-289 -184l-69 125l374 237h142v-1417h-158z" />
    <glyph glyph-name="two" unicode="2" vert-adv-y="2458" 
d="M131 0v143q325 292 474 460q134 152 190 260q53 105 53 199q0 107 -79 172q-87 72 -227 72q-160 0 -329 -105l-41 140q196 96 390 96q190 0 312 -84q140 -95 140 -281q0 -140 -81 -278q-95 -165 -371 -441q-106 -106 -234 -218h698v-135h-895z" />
    <glyph glyph-name="three" unicode="3" vert-adv-y="2458" 
d="M126 44l37 132q179 -65 331 -65q166 0 257 86q87 83 87 209q0 152 -143 223q-111 55 -304 55q-40 0 -79 -4v135q42 -4 85 -4q176 0 283 59q140 77 140 214q0 101 -76 161q-79 61 -216 61q-146 0 -324 -68l-31 132q187 67 371 67q210 0 331 -99q111 -90 111 -239
q0 -119 -68 -209q-80 -106 -251 -141q143 -13 224 -83q113 -95 113 -264q0 -200 -152 -318q-133 -104 -349 -104q-183 0 -377 64z" />
    <glyph glyph-name="four" unicode="4" vert-adv-y="2458" 
d="M709 0v408h-639v155l610 854h185v-874h219v-135h-219v-408h-156zM709 543v692l-489 -692h489z" />
    <glyph glyph-name="five" unicode="5" vert-adv-y="2458" 
d="M147 70l60 133q162 -92 307 -92q163 0 261 105q92 100 92 251q0 130 -77 211q-86 92 -241 92q-164 0 -363 -76l21 723h765v-135h-604l-17 -414q118 33 223 33q207 0 328 -113q131 -122 131 -329q0 -226 -165 -364q-139 -115 -350 -115q-186 0 -371 90z" />
    <glyph glyph-name="six" unicode="6" vert-adv-y="2458" 
d="M960 1435l-8 -133q-54 4 -84 4q-287 0 -429 -211q-95 -140 -122 -364q130 164 341 164q132 0 239 -70q178 -117 178 -376q0 -210 -131 -340q-130 -129 -336 -129q-257 0 -373 182q-96 151 -96 404q0 302 117 526q109 206 297 286q136 59 318 59q13 0 89 -2zM613 764
q-133 0 -217 -90q-83 -87 -83 -240q0 -148 81 -236q82 -87 217 -87t217 87q81 88 81 238q0 152 -76 237q-82 91 -220 91z" />
    <glyph glyph-name="seven" unicode="7" vert-adv-y="2458" 
d="M426 0h-180l627 1282h-752v135h920v-135z" />
    <glyph glyph-name="eight" unicode="8" vert-adv-y="2458" 
d="M435 735q-128 57 -187 116q-90 91 -90 231q0 169 122 262t312 93q193 0 316 -94q118 -91 118 -258q0 -155 -124 -251q-44 -34 -136 -80q122 -51 192 -113q109 -97 109 -258q0 -191 -133 -298q-129 -105 -345 -105q-210 0 -341 101q-135 103 -135 283q0 277 322 371z
M638 807l18 9q86 42 138 95q68 69 68 169q0 108 -72 165q-78 61 -199 61q-118 0 -194 -57q-75 -55 -75 -166q0 -78 47 -131q62 -70 269 -145zM579 678q-300 -88 -300 -307q0 -121 88 -190q89 -70 224 -70q136 0 224 73q86 70 86 181q0 83 -46 144q-42 58 -168 121
q-35 18 -75 35q-32 14 -33 13z" />
    <glyph glyph-name="nine" unicode="9" vert-adv-y="2458" 
d="M219 -18l8 133q50 -4 84 -4q287 0 429 211q95 140 122 364q-130 -164 -341 -164q-132 0 -239 70q-178 117 -178 375q0 211 131 341q131 129 336 129q176 0 291 -91q178 -141 178 -494q0 -303 -117 -527q-109 -206 -297 -287q-136 -58 -318 -58q-19 0 -89 2zM564 1306
q-130 0 -212 -87t-82 -240q0 -148 76 -235q81 -91 216 -91q137 0 221 90q83 87 83 239q0 151 -82 237q-83 87 -220 87z" />
    <glyph glyph-name="colon" unicode=":" horiz-adv-x="590" vert-adv-y="2458" 
d="M340 222q49 0 83 -33q36 -35 36 -88q0 -52 -36 -88q-34 -33 -85 -33t-85 33q-36 36 -36 88q0 53 36 88q35 33 87 33zM340 983q49 0 83 -33q36 -36 36 -88t-36 -88q-34 -33 -85 -33t-85 33q-36 36 -36 88q0 53 36 88q35 33 87 33z" />
    <glyph glyph-name="semicolon" unicode=";" horiz-adv-x="590" vert-adv-y="2458" 
d="M233 209h198l-177 -459h-161zM340 983q48 0 83 -33q36 -36 36 -88t-36 -88q-34 -33 -85 -33t-85 33q-36 36 -36 88q0 53 36 88q35 33 87 33z" />
    <glyph glyph-name="semicolon" unicode="&#x37e;" horiz-adv-x="590" vert-adv-y="2458" 
d="M233 209h198l-177 -459h-161zM340 983q48 0 83 -33q36 -36 36 -88t-36 -88q-34 -33 -85 -33t-85 33q-36 36 -36 88q0 53 36 88q35 33 87 33z" />
    <glyph glyph-name="less" unicode="&#x3c;" vert-adv-y="2458" 
d="M231 519l871 -406v-133l-1036 486v106l1036 487v-134z" />
    <glyph glyph-name="equal" unicode="=" vert-adv-y="2458" 
d="M72 604v123h1036v-123h-1036zM72 309v123h1036v-123h-1036z" />
    <glyph glyph-name="greater" unicode="&#x3e;" vert-adv-y="2458" 
d="M949 519l-871 406v134l1036 -487v-106l-1036 -486v133z" />
    <glyph glyph-name="question" unicode="?" horiz-adv-x="840" vert-adv-y="2458" 
d="M446 369h-139v59q1 168 20 213q23 60 150 180q83 77 112 121q35 54 35 111q0 86 -66 134q-53 38 -133 38q-115 0 -280 -96l-43 131q171 90 340 90q166 0 264 -86q92 -80 92 -206q0 -96 -61 -181q-35 -49 -118 -126q-113 -105 -146 -154q-27 -44 -27 -121v-107zM381 222
q49 0 83 -33q36 -35 36 -88q0 -52 -36 -88q-34 -33 -85 -33t-85 33q-36 36 -36 88q0 53 36 88q35 33 87 33z" />
    <glyph glyph-name="at" unicode="@" horiz-adv-x="1714" vert-adv-y="2458" 
d="M1177 157l44 -101q-179 -76 -358 -76q-296 0 -508 206q-220 214 -220 523q0 287 189 491q104 113 247 174q146 63 311 63q199 0 373 -87q178 -89 260 -250q64 -127 64 -283q0 -234 -127 -373q-124 -135 -270 -135q-84 0 -128 63q-23 33 -24 82q-107 -145 -269 -145
q-128 0 -202 76q-82 82 -82 211q0 128 71 247q143 240 412 240q125 0 261 -45l-72 -450q-10 -63 -10 -93q0 -40 23 -59q19 -16 44 -16q57 0 119 56q67 61 105 173q30 90 30 181q0 215 -162 351q-171 145 -414 145q-281 0 -466 -199q-164 -176 -164 -415q0 -176 92 -329
q84 -139 230 -216q143 -76 311 -76q140 0 290 66zM1075 964q-66 21 -113 21q-131 0 -229 -109q-104 -116 -104 -263q0 -79 37 -133q41 -60 122 -60q100 0 184 89q27 30 37 63q5 15 11 52z" />
    <glyph glyph-name="A" unicode="A" horiz-adv-x="1276" vert-adv-y="2458" 
d="M897 496h-528l-174 -496h-166l504 1417h207l508 -1417h-177zM848 631l-126 373q-49 143 -87 273q-36 -121 -88 -274l-129 -372h430z" />
    <glyph glyph-name="B" unicode="B" horiz-adv-x="1126" vert-adv-y="2458" 
d="M184 0v1417h221q164 0 252 -12q320 -44 320 -354q0 -170 -101 -254q-63 -52 -186 -75q326 -37 326 -345q0 -234 -181 -325q-77 -38 -183 -48q-42 -4 -187 -4h-281zM348 782h74q202 0 276 42q105 60 105 207q0 156 -98 210q-77 43 -283 43h-74v-502zM348 133h74
q147 0 221 11q199 30 199 251q0 167 -136 224q-84 36 -284 36h-74v-522z" />
    <glyph glyph-name="C" unicode="C" horiz-adv-x="1202" vert-adv-y="2458" 
d="M1112 190l41 -131q-203 -79 -381 -79q-292 0 -470 188q-191 202 -191 530q0 227 90 402q100 193 277 277q128 60 286 60q185 0 381 -88l-53 -131q-176 84 -325 84q-234 0 -358 -177q-124 -178 -124 -428q0 -172 64 -313q69 -153 206 -222q94 -47 218 -47q167 0 339 75z
" />
    <glyph glyph-name="D" unicode="D" horiz-adv-x="1343" vert-adv-y="2458" 
d="M184 0v1417h317q165 0 274 -19q237 -43 353 -239q105 -178 105 -442q0 -256 -98 -431q-121 -215 -367 -264q-113 -22 -289 -22h-295zM348 135h143q252 0 376 91q97 71 149 211q43 115 43 269q0 233 -93 389q-86 145 -260 174q-76 13 -239 13h-119v-1147z" />
    <glyph glyph-name="E" unicode="E" horiz-adv-x="1083" vert-adv-y="2458" 
d="M184 0v1417h748v-135h-584v-496h555v-135h-555v-516h614v-135h-778z" />
    <glyph glyph-name="F" unicode="F" horiz-adv-x="1047" vert-adv-y="2458" 
d="M184 0v1417h752v-135h-588v-496h559v-135h-559v-651h-164z" />
    <glyph glyph-name="G" unicode="G" horiz-adv-x="1378" vert-adv-y="2458" 
d="M1207 731v-670q-94 -36 -212 -58.5t-219 -22.5q-286 0 -465 178q-200 198 -200 532q0 349 201 557q183 190 470 190q199 0 415 -100l-48 -131q-187 96 -372 96q-240 0 -369 -181q-123 -174 -123 -429q0 -291 168 -452q131 -125 339 -125q123 0 251 45v436h-279v135h443z
" />
    <glyph glyph-name="H" unicode="H" horiz-adv-x="1378" vert-adv-y="2458" 
d="M184 0v1417h164v-624h682v624h164v-1417h-164v658h-682v-658h-164z" />
    <glyph glyph-name="I" unicode="I" horiz-adv-x="532" vert-adv-y="2458" 
d="M184 0v1417h164v-1417h-164z" />
    <glyph glyph-name="J" unicode="J" horiz-adv-x="741" vert-adv-y="2458" 
d="M406 1417h164v-954q0 -161 -16 -234q-52 -249 -344 -249q-115 0 -222 40l14 136q91 -41 193 -41q148 0 185 100q26 69 26 319v883z" />
    <glyph glyph-name="K" unicode="K" horiz-adv-x="1187" vert-adv-y="2458" 
d="M184 0v1417h164v-677l601 677h196l-597 -676l624 -741h-211l-613 731v-731h-164z" />
    <glyph glyph-name="L" unicode="L" horiz-adv-x="971" vert-adv-y="2458" 
d="M184 0v1417h164v-1282h614v-135h-778z" />
    <glyph glyph-name="M" unicode="M" horiz-adv-x="1745" vert-adv-y="2458" 
d="M184 0v1417h228l401 -1072q35 -96 69 -198q31 98 68 198l391 1072h219v-1417h-164v1180q-67 -216 -120 -362l-306 -818h-190l-312 809q-56 145 -128 371v-1180h-156z" />
    <glyph glyph-name="N" unicode="N" horiz-adv-x="1413" vert-adv-y="2458" 
d="M184 0v1417h189l545 -902q60 -100 129 -228l29 -54q-4 90 -4 210v974h156v-1417h-191l-550 911q-78 129 -151 271q4 -105 4 -267v-915h-156z" />
    <glyph glyph-name="O" unicode="O" horiz-adv-x="1475" vert-adv-y="2458" 
d="M745 1437q294 0 458 -217q161 -213 161 -511q0 -198 -74 -363q-163 -366 -552 -366q-301 0 -466 217q-161 212 -161 512q0 196 74 362q163 366 560 366zM732 1302q-214 0 -337 -176q-110 -158 -110 -418q0 -284 131 -445q122 -148 322 -148q218 0 341 176
q111 157 111 418q0 285 -131 445q-122 148 -327 148z" />
    <glyph glyph-name="P" unicode="P" horiz-adv-x="1042" vert-adv-y="2458" 
d="M184 0v1417h274q256 0 371 -75q164 -106 164 -338q0 -152 -80 -253q-79 -98 -229 -131q-98 -22 -245 -22h-91v-598h-164zM348 733h67q205 0 288 42q116 59 116 229q0 90 -42 160q-50 83 -154 103q-75 15 -182 15h-93v-549z" />
    <glyph glyph-name="Q" unicode="Q" horiz-adv-x="1475" vert-adv-y="2458" 
d="M917 2q137 -131 312 -254l-86 -98q-212 133 -427 330q-219 10 -356 123q-122 101 -192 282q-57 149 -57 323q0 197 74 363q162 366 553 366q300 0 465 -217q161 -212 161 -512q0 -197 -74 -363q-86 -195 -235 -285q-56 -35 -138 -58zM732 1302q-214 0 -337 -176
q-110 -158 -110 -418q0 -285 131 -446q122 -148 322 -148q218 0 341 176q111 158 111 419q0 285 -131 445q-122 148 -327 148z" />
    <glyph glyph-name="R" unicode="R" horiz-adv-x="1102" vert-adv-y="2458" 
d="M184 0v1417h302q225 0 333 -64q166 -99 166 -308q0 -175 -121 -276q-68 -56 -180 -81q93 -28 133 -87q29 -41 82 -171l174 -430h-174l-150 355q-43 101 -73 154q-52 90 -135 108q-52 12 -145 12h-48v-629h-164zM348 764h76q167 0 253 40q134 62 134 225q0 154 -115 213
q-77 40 -248 40h-100v-518z" />
    <glyph glyph-name="S" unicode="S" horiz-adv-x="1065" vert-adv-y="2458" 
d="M125 43l21 143q194 -71 345 -71q136 0 215 72q75 68 75 180q0 105 -63 163q-52 50 -226 127q-155 69 -207 101q-102 64 -142 146q-32 65 -32 150q0 178 121 280q121 103 323 103q142 0 334 -63l-33 -147q-157 75 -303 75q-112 0 -189 -58q-79 -59 -79 -160q0 -81 52 -138
q40 -44 93 -71q54 -29 128 -60q151 -63 213 -104q184 -121 184 -330q0 -189 -133 -298q-127 -103 -336 -103q-163 0 -361 63z" />
    <glyph glyph-name="T" unicode="T" horiz-adv-x="1055" vert-adv-y="2458" 
d="M443 0v1282h-414v135h997v-135h-419v-1282h-164z" />
    <glyph glyph-name="U" unicode="U" horiz-adv-x="1362" vert-adv-y="2458" 
d="M172 1417h164v-860q0 -138 18 -210q36 -143 141 -196q72 -36 185 -36q207 0 289 122q65 97 65 289v891h156v-792q0 -236 -17 -314q-36 -170 -184 -259q-121 -72 -309 -72q-319 0 -443 204q-54 88 -61 247q-4 78 -4 194v792z" />
    <glyph glyph-name="V" unicode="V" horiz-adv-x="1217" vert-adv-y="2458" 
d="M502 0l-494 1417h180l331 -971q59 -174 95 -302q56 183 104 323l326 950h164l-493 -1417h-213z" />
    <glyph glyph-name="W" unicode="W" horiz-adv-x="1759" vert-adv-y="2458" 
d="M387 0l-317 1417h172l203 -959q34 -161 57 -303q22 133 62 306l215 956h206l219 -950q37 -161 62 -302q19 117 58 298l208 954h158l-320 -1417h-210l-218 947q-39 172 -63 307q-24 -135 -63 -309l-218 -945h-211z" />
    <glyph glyph-name="X" unicode="X" horiz-adv-x="1260" vert-adv-y="2458" 
d="M49 0l483 721l-458 696h190l368 -559l382 559h180l-467 -688l483 -729h-196l-382 586l-397 -586h-186z" />
    <glyph glyph-name="Y" unicode="Y" horiz-adv-x="1147" vert-adv-y="2458" 
d="M492 0v638l-496 779h193l295 -471q57 -91 97 -166q60 108 99 171l291 466h180l-495 -779v-638h-164z" />
    <glyph glyph-name="Z" unicode="Z" horiz-adv-x="1115" vert-adv-y="2458" 
d="M80 0v135l742 1147h-718v135h905v-135l-739 -1147h760v-135h-950z" />
    <glyph glyph-name="bracketleft" unicode="[" horiz-adv-x="737" vert-adv-y="2458" 
d="M229 -317v1859h340v-125h-184v-1609h184v-125h-340z" />
    <glyph glyph-name="backslash" unicode="\" horiz-adv-x="545" vert-adv-y="2458" 
d="M348 -41l-287 1499h135l287 -1499h-135z" />
    <glyph glyph-name="bracketright" unicode="]" horiz-adv-x="737" vert-adv-y="2458" 
d="M508 1542v-1859h-340v125h184v1609h-184v125h340z" />
    <glyph glyph-name="asciicircum" unicode="^" vert-adv-y="2458" 
d="M590 1269l-390 -749h-131l471 897h100l471 -897h-131z" />
    <glyph glyph-name="underscore" unicode="_" horiz-adv-x="1024" vert-adv-y="2458" 
d="M-32 -303v125h1089v-125h-1089z" />
    <glyph glyph-name="grave" unicode="`" horiz-adv-x="1024" vert-adv-y="2458" 
d="M455 1497l250 -299h-150l-299 299h199z" />
    <glyph glyph-name="a" unicode="a" horiz-adv-x="1051" vert-adv-y="2458" 
d="M728 121q-53 -57 -102 -87q-90 -54 -208 -54q-163 0 -249 92q-76 81 -76 214q0 206 173 292q101 51 300 51q41 0 150 -4v28q0 113 -29 172q-52 108 -206 108q-126 0 -268 -90l-68 112q163 103 353 103q236 0 323 -141q41 -67 48 -192q3 -44 3 -127v-339q-1 -150 8 -259
h-145zM716 506q-55 4 -117 4q-166 0 -242 -44q-100 -57 -100 -176q0 -84 50 -134q52 -51 139 -51q163 0 270 159v242z" />
    <glyph glyph-name="b" unicode="b" horiz-adv-x="1149" vert-adv-y="2458" 
d="M317 0h-147l1 37q7 186 7 341v1119h156v-602q121 163 306 163q181 0 298 -154q111 -146 111 -378q0 -257 -130 -413q-111 -133 -287 -133q-125 0 -211 70q-42 34 -99 108zM334 299q43 -67 80 -107q84 -87 193 -87q143 0 215 131q63 115 63 286q0 184 -74 301
q-70 110 -202 110q-175 0 -275 -194v-440z" />
    <glyph glyph-name="c" unicode="c" horiz-adv-x="944" vert-adv-y="2458" 
d="M839 197l60 -121q-141 -96 -315 -96q-224 0 -351 137q-133 144 -133 392q0 273 141 420q123 129 329 129q161 0 310 -83l-59 -123q-126 81 -252 81q-152 0 -229 -110q-76 -109 -76 -294q0 -199 90 -317q83 -107 232 -107q132 0 253 92z" />
    <glyph glyph-name="d" unicode="d" horiz-adv-x="1149" vert-adv-y="2458" 
d="M814 1497h156v-1119q0 -155 7 -341l1 -37h-147l-5 158q-57 -74 -99 -108q-86 -70 -211 -70q-189 0 -304 155q-113 153 -113 391q0 250 128 399q114 133 281 133q185 0 306 -163v602zM814 739q-100 194 -275 194q-132 0 -202 -110q-74 -117 -74 -301q0 -171 63 -286
q72 -131 215 -131q109 0 193 87q37 40 80 107v440z" />
    <glyph glyph-name="e" unicode="e" horiz-adv-x="1077" vert-adv-y="2458" 
d="M264 477q17 -174 80 -259q86 -113 254 -113q143 0 284 98l60 -121q-162 -102 -347 -102q-246 0 -379 161q-116 141 -116 378q0 287 155 431q116 108 297 108q277 0 372 -227q53 -128 57 -354h-717zM815 602q-3 115 -40 192q-67 139 -228 139q-154 0 -231 -137
q-44 -79 -48 -194h547z" />
    <glyph glyph-name="e" unicode="&#x212e;" horiz-adv-x="1077" vert-adv-y="2458" 
d="M264 477q17 -174 80 -259q86 -113 254 -113q143 0 284 98l60 -121q-162 -102 -347 -102q-246 0 -379 161q-116 141 -116 378q0 287 155 431q116 108 297 108q277 0 372 -227q53 -128 57 -354h-717zM815 602q-3 115 -40 192q-67 139 -228 139q-154 0 -231 -137
q-44 -79 -48 -194h547z" />
    <glyph glyph-name="f" unicode="f" horiz-adv-x="690" vert-adv-y="2458" 
d="M234 0v913h-168v125h168v99q0 183 51 266q70 114 237 114q68 0 146 -20l-14 -135q-55 30 -119 30q-99 0 -128 -94q-17 -55 -17 -174v-86h245v-125h-245v-913h-156z" />
    <glyph glyph-name="g" unicode="g" horiz-adv-x="1153" vert-adv-y="2458" 
d="M830 1038h152q-8 -240 -8 -409v-519q0 -175 -21 -267q-34 -146 -164 -232q-109 -72 -262 -72q-207 0 -392 113l67 120q157 -108 322 -108q183 0 254 148q40 83 40 284v86q-145 -164 -317 -164q-174 0 -289 140q-113 137 -113 372q0 254 125 402q107 126 280 126
q205 0 320 -180zM818 733q-42 80 -94 125q-87 75 -187 75q-139 0 -211 -126q-63 -111 -63 -275q0 -159 66 -267q76 -122 214 -122q167 0 275 182v408z" />
    <glyph glyph-name="h" unicode="h" horiz-adv-x="1190" vert-adv-y="2458" 
d="M178 0v1497h156v-620q171 181 373 181q196 0 270 -144q32 -64 39 -180q4 -70 4 -134v-600h-156v603q0 156 -22 219q-38 111 -179 111q-170 0 -329 -194v-739h-156z" />
    <glyph glyph-name="i" unicode="i" horiz-adv-x="512" vert-adv-y="2458" 
d="M178 0v1038h156v-1038h-156zM257 1517q57 0 88 -43q21 -29 21 -68q0 -38 -21 -67q-31 -43 -90 -43q-58 0 -89 43q-21 29 -21 67q0 39 21 68q31 43 91 43z" />
    <glyph glyph-name="j" unicode="j" horiz-adv-x="512" vert-adv-y="2458" 
d="M178 1038h156v-1059q0 -139 -7 -204q-14 -123 -100 -185q-72 -51 -185 -51q-59 0 -119 13l17 130q48 -12 86 -12q85 0 122 55q30 43 30 141v1172zM257 1517q57 0 88 -43q21 -29 21 -68q0 -38 -21 -67q-31 -43 -90 -43q-58 0 -89 43q-21 29 -21 67q0 39 21 68q31 43 91 43
z" />
    <glyph glyph-name="k" unicode="k" horiz-adv-x="999" vert-adv-y="2458" 
d="M178 0v1497h156v-899l422 440h195l-453 -461l483 -577h-200l-447 536v-536h-156z" />
    <glyph glyph-name="l" unicode="l" horiz-adv-x="512" vert-adv-y="2458" 
d="M178 0v1497h156v-1497h-156z" />
    <glyph glyph-name="m" unicode="m" horiz-adv-x="1782" vert-adv-y="2458" 
d="M178 0v700q-1 254 -8 338h154l6 -164q56 59 104 96q113 88 246 88q142 0 220 -95q35 -43 52 -110q64 73 120 118q108 87 244 87q186 0 255 -144q31 -65 37 -180q4 -71 4 -134v-600h-156v603q0 156 -20 219q-36 111 -164 111q-154 0 -299 -194v-739h-156v621
q0 145 -22 204q-41 108 -157 108q-155 0 -304 -194v-739h-156z" />
    <glyph glyph-name="n" unicode="n" horiz-adv-x="1190" vert-adv-y="2458" 
d="M178 0v700q-1 254 -8 338h154l6 -166q59 62 111 100q118 86 266 86q197 0 270 -144q32 -64 39 -180q4 -70 4 -134v-600h-156v603q0 156 -22 219q-39 111 -179 111q-169 0 -329 -194v-739h-156z" />
    <glyph glyph-name="o" unicode="o" horiz-adv-x="1157" vert-adv-y="2458" 
d="M584 1058q221 0 357 -171q115 -144 115 -368q0 -241 -133 -389q-135 -150 -345 -150q-227 0 -363 171q-115 145 -115 369q0 242 133 389q134 149 351 149zM574 933q-96 0 -172 -59q-138 -108 -138 -355q0 -171 72 -282q86 -132 242 -132q169 0 254 153q60 106 60 262
q0 171 -72 281q-86 132 -246 132z" />
    <glyph glyph-name="p" unicode="p" horiz-adv-x="1149" vert-adv-y="2458" 
d="M178 -440v1059q0 182 -6 363l-2 56h146l6 -158q52 71 100 106q97 72 218 72q181 0 298 -154q111 -146 111 -378q0 -257 -130 -413q-111 -133 -287 -133q-126 0 -211 70q-40 33 -87 92v-582h-156zM334 298q45 -68 80 -106q83 -87 193 -87q143 0 215 131q63 115 63 286
q0 184 -74 301q-70 110 -202 110q-163 0 -275 -190v-445z" />
    <glyph glyph-name="q" unicode="q" horiz-adv-x="1149" vert-adv-y="2458" 
d="M832 1038h146l-2 -56q-6 -182 -6 -363v-1059h-156v582q-47 -59 -87 -92q-85 -70 -211 -70q-189 0 -304 155q-113 153 -113 391q0 250 128 399q114 133 281 133q121 0 218 -72q48 -35 100 -106zM814 743q-112 190 -275 190q-132 0 -202 -110q-74 -117 -74 -301
q0 -171 63 -286q72 -131 215 -131q110 0 193 87q35 38 80 106v445z" />
    <glyph glyph-name="r" unicode="r" horiz-adv-x="719" vert-adv-y="2458" 
d="M180 0v592q0 204 -6 398l-1 48h145l6 -191q52 96 112 148q72 63 180 63q32 0 72 -7l-14 -140q-28 6 -54 6q-116 0 -204 -115q-49 -66 -80 -145v-657h-156z" />
    <glyph glyph-name="s" unicode="s" horiz-adv-x="862" vert-adv-y="2458" 
d="M100 51l47 123q143 -69 252 -69q79 0 137 43q62 46 62 132q0 69 -41 105q-35 31 -167 81q-105 41 -148 69q-138 87 -138 233q0 137 107 220q91 70 234 70q146 0 296 -77l-47 -123q-112 75 -235 75q-80 0 -131 -34q-60 -39 -60 -118q0 -72 59 -114q43 -30 153 -74
q122 -49 167 -81q115 -79 115 -221q0 -150 -113 -235q-100 -76 -252 -76q-147 0 -297 71z" />
    <glyph glyph-name="t" unicode="t" horiz-adv-x="704" vert-adv-y="2458" 
d="M234 913h-168v125h168v227l156 33v-260h245v-125h-245v-567q0 -129 22 -176q32 -65 118 -65q52 0 119 31l14 -124q-90 -32 -168 -32q-156 0 -216 96q-45 71 -45 239v598z" />
    <glyph glyph-name="u" unicode="u" horiz-adv-x="1178" vert-adv-y="2458" 
d="M999 1038v-700q1 -260 8 -338h-154l-6 166q-55 -59 -109 -98q-123 -88 -260 -88q-193 0 -265 144q-32 65 -39 180q-4 67 -4 134v600h156v-603q0 -157 22 -219q38 -111 173 -111q165 0 322 194v739h156z" />
    <glyph glyph-name="v" unicode="v" horiz-adv-x="1008" vert-adv-y="2458" 
d="M406 0l-373 1038h164l254 -702q35 -95 67 -197q27 88 63 191l251 708h143l-369 -1038h-200z" />
    <glyph glyph-name="w" unicode="w" horiz-adv-x="1612" vert-adv-y="2458" 
d="M342 0l-285 1038h160l171 -650q39 -147 64 -255q29 113 71 262l181 643h203l186 -628q43 -148 78 -277q30 122 69 266l173 639h141l-291 -1038h-196l-200 663q-41 136 -71 246q-31 -122 -70 -259l-186 -650h-198z" />
    <glyph glyph-name="x" unicode="x" horiz-adv-x="1006" vert-adv-y="2458" 
d="M39 0l379 522l-361 516h185l268 -391l281 391h168l-367 -502l375 -536h-185l-282 405l-293 -405h-168z" />
    <glyph glyph-name="y" unicode="y" horiz-adv-x="1001" vert-adv-y="2458" 
d="M433 -15l-409 1053h167l237 -621q42 -111 85 -237q41 121 87 244l230 614h146l-422 -1126q-66 -175 -141 -270q-82 -103 -239 -103q-73 0 -153 20l27 127q63 -22 116 -22q85 0 136 52q75 76 133 269z" />
    <glyph glyph-name="z" unicode="z" horiz-adv-x="909" vert-adv-y="2458" 
d="M70 0v117l564 796h-537v125h723v-125l-561 -788h577v-125h-766z" />
    <glyph glyph-name="braceleft" unicode="{" horiz-adv-x="737" vert-adv-y="2458" 
d="M117 553v118q108 7 146 57q33 44 32 185v285q1 98 10 156q18 119 108 162q55 26 169 26h72v-119h-72q-82 0 -109 -43q-23 -43 -22 -163v-338q0 -101 -13 -147q-31 -99 -158 -120q87 -15 129 -65q32 -39 38 -107q4 -32 4 -95v-338q-1 -121 22 -163q28 -43 109 -43h72v-118
h-72q-114 0 -169 26q-90 42 -108 161q-9 57 -10 156v285q1 150 -38 193q-41 43 -140 49z" />
    <glyph glyph-name="bar" unicode="|" horiz-adv-x="590" vert-adv-y="2458" 
d="M213 -440v1857h164v-1857h-164z" />
    <glyph glyph-name="braceright" unicode="}" horiz-adv-x="737" vert-adv-y="2458" 
d="M621 671v-118q-108 -7 -146 -57q-33 -44 -32 -185v-285q-1 -98 -10 -156q-18 -119 -108 -161q-56 -26 -169 -26h-72v118h72q81 0 108 42q24 43 23 164v338q0 101 13 147q31 99 158 120q-87 15 -129 65q-32 39 -38 107q-4 32 -4 95v338q1 114 -18 156q-27 50 -113 50h-72
v119h72q114 0 169 -26q90 -43 108 -162q9 -58 10 -156v-285q-1 -150 38 -193q41 -43 140 -49z" />
    <glyph glyph-name="asciitilde" unicode="~" vert-adv-y="2458" 
d="M163 388l-91 76q61 83 108 126q89 80 190 80q61 0 127 -31q51 -24 114 -62q79 -47 100 -56q49 -21 87 -21q80 0 147 69q15 16 72 83l91 -78q-55 -75 -107 -124q-92 -83 -192 -83q-88 0 -238 91q-73 45 -103 58q-49 21 -95 21q-71 0 -135 -65q-34 -35 -75 -84z" />
    <glyph glyph-name="Adieresis" unicode="&#xc4;" horiz-adv-x="1276" vert-adv-y="2458" 
d="M897 496h-528l-174 -496h-166l504 1417h207l508 -1417h-177zM848 631l-126 373q-49 143 -87 273q-36 -121 -88 -274l-129 -372h430zM445 1802q52 0 82 -38q23 -28 23 -69q0 -40 -23 -68q-29 -38 -83 -38q-55 0 -84 39q-23 29 -23 70q0 40 23 67q30 37 85 37zM834 1802
q52 0 82 -38q23 -28 23 -69q0 -40 -23 -68q-29 -38 -83 -38q-55 0 -84 39q-23 29 -23 70q0 40 23 67q30 37 85 37z" />
    <glyph glyph-name="Aring" unicode="&#xc5;" horiz-adv-x="1276" vert-adv-y="2458" 
d="M29 0l505 1421q-99 60 -99 176q0 88 60 147q59 58 143 58q85 0 144 -58q60 -59 60 -147q0 -117 -103 -178l509 -1419h-177l-174 496h-528l-174 -496h-166zM848 631l-126 374q-48 141 -87 273q-35 -117 -88 -274l-129 -373h430zM637 1720q-56 0 -89 -42q-27 -34 -27 -80
q0 -47 27 -81q33 -42 90 -42q58 0 91 42q27 35 27 80q0 46 -27 81q-32 42 -92 42z" />
    <glyph glyph-name="Ccedilla" unicode="&#xc7;" horiz-adv-x="1202" vert-adv-y="2458" 
d="M1112 190l41 -131q-203 -79 -381 -79q-292 0 -470 188q-191 202 -191 530q0 227 90 402q100 193 277 277q128 60 286 60q185 0 381 -88l-53 -131q-176 84 -325 84q-234 0 -358 -177q-124 -178 -124 -428q0 -172 64 -313q69 -153 206 -222q94 -47 218 -47q167 0 339 75z
M642 -70h186l-276 -301h-152z" />
    <glyph glyph-name="Eacute" unicode="&#xc9;" horiz-adv-x="1083" vert-adv-y="2458" 
d="M184 0v1417h748v-135h-584v-496h555v-135h-555v-516h614v-135h-778zM680 1845h199l-299 -299h-150z" />
    <glyph glyph-name="Ntilde" unicode="&#xd1;" horiz-adv-x="1413" vert-adv-y="2458" 
d="M184 0v1417h189l545 -902q60 -100 129 -228l29 -54q-4 90 -4 210v974h156v-1417h-191l-550 911q-78 129 -151 271q4 -105 4 -267v-915h-156zM489 1585h-106q9 78 43 128q55 81 149 81q67 0 182 -43q81 -31 117 -31q44 0 72 32q17 20 21 54h104q-9 -79 -40 -128
q-52 -83 -153 -83q-62 0 -173 41q-90 33 -128 33q-62 0 -88 -84z" />
    <glyph glyph-name="Odieresis" unicode="&#xd6;" horiz-adv-x="1475" vert-adv-y="2458" 
d="M745 1437q294 0 458 -217q161 -213 161 -511q0 -198 -74 -363q-163 -366 -552 -366q-301 0 -466 217q-161 212 -161 512q0 196 74 362q163 366 560 366zM732 1302q-214 0 -337 -176q-110 -158 -110 -418q0 -284 131 -445q122 -148 322 -148q218 0 341 176
q111 157 111 418q0 285 -131 445q-122 148 -327 148zM545 1802q52 0 82 -38q23 -28 23 -69q0 -40 -23 -68q-29 -38 -83 -38q-55 0 -84 39q-23 29 -23 70q0 40 23 67q30 37 85 37zM934 1802q52 0 82 -38q23 -28 23 -69q0 -40 -23 -68q-29 -38 -83 -38q-55 0 -84 39
q-23 29 -23 70q0 40 23 67q30 37 85 37z" />
    <glyph glyph-name="Udieresis" unicode="&#xdc;" horiz-adv-x="1362" vert-adv-y="2458" 
d="M172 1417h164v-860q0 -138 18 -210q36 -143 141 -196q72 -36 185 -36q207 0 289 122q65 97 65 289v891h156v-792q0 -236 -17 -314q-36 -170 -184 -259q-121 -72 -309 -72q-319 0 -443 204q-54 88 -61 247q-4 78 -4 194v792zM488 1802q52 0 82 -38q23 -28 23 -69
q0 -40 -23 -68q-29 -38 -83 -38q-55 0 -84 39q-23 29 -23 70q0 40 23 67q30 37 85 37zM877 1802q52 0 82 -38q23 -28 23 -69q0 -40 -23 -68q-29 -38 -83 -38q-55 0 -84 39q-23 29 -23 70q0 40 23 67q30 37 85 37z" />
    <glyph glyph-name="aacute" unicode="&#xe1;" horiz-adv-x="1051" vert-adv-y="2458" 
d="M728 121q-53 -57 -102 -87q-90 -54 -208 -54q-163 0 -249 92q-76 81 -76 214q0 206 173 292q101 51 300 51q41 0 150 -4v28q0 113 -29 172q-52 108 -206 108q-126 0 -268 -90l-68 112q163 103 353 103q236 0 323 -141q41 -67 48 -192q3 -44 3 -127v-339q-1 -150 8 -259
h-145zM716 506q-55 4 -117 4q-166 0 -242 -44q-100 -57 -100 -176q0 -84 50 -134q52 -51 139 -51q163 0 270 159v242zM603 1497h199l-299 -299h-150z" />
    <glyph glyph-name="agrave" unicode="&#xe0;" horiz-adv-x="1051" vert-adv-y="2458" 
d="M728 121q-53 -57 -102 -87q-90 -54 -208 -54q-163 0 -249 92q-76 81 -76 214q0 206 173 292q101 51 300 51q41 0 150 -4v28q0 113 -29 172q-52 108 -206 108q-126 0 -268 -90l-68 112q163 103 353 103q236 0 323 -141q41 -67 48 -192q3 -44 3 -127v-339q-1 -150 8 -259
h-145zM716 506q-55 4 -117 4q-166 0 -242 -44q-100 -57 -100 -176q0 -84 50 -134q52 -51 139 -51q163 0 270 159v242zM468 1497l250 -299h-150l-299 299h199z" />
    <glyph glyph-name="acircumflex" unicode="&#xe2;" horiz-adv-x="1051" vert-adv-y="2458" 
d="M728 121q-53 -57 -102 -87q-90 -54 -208 -54q-163 0 -249 92q-76 81 -76 214q0 206 173 292q101 51 300 51q41 0 150 -4v28q0 113 -29 172q-52 108 -206 108q-126 0 -268 -90l-68 112q163 103 353 103q236 0 323 -141q41 -67 48 -192q3 -44 3 -127v-339q-1 -150 8 -259
h-145zM716 506q-55 4 -117 4q-166 0 -242 -44q-100 -57 -100 -176q0 -84 50 -134q52 -51 139 -51q163 0 270 159v242zM518 1399l-149 -201h-150l205 299h188l205 -299h-149z" />
    <glyph glyph-name="adieresis" unicode="&#xe4;" horiz-adv-x="1051" vert-adv-y="2458" 
d="M728 121q-53 -57 -102 -87q-90 -54 -208 -54q-163 0 -249 92q-76 81 -76 214q0 206 173 292q101 51 300 51q41 0 150 -4v28q0 113 -29 172q-52 108 -206 108q-126 0 -268 -90l-68 112q163 103 353 103q236 0 323 -141q41 -67 48 -192q3 -44 3 -127v-339q-1 -150 8 -259
h-145zM716 506q-55 4 -117 4q-166 0 -242 -44q-100 -57 -100 -176q0 -84 50 -134q52 -51 139 -51q163 0 270 159v242zM332 1454q52 0 82 -38q23 -28 23 -69q0 -40 -23 -68q-30 -38 -83 -38q-55 0 -84 39q-23 29 -23 70q0 40 23 67q30 37 85 37zM721 1454q52 0 82 -38
q23 -28 23 -69q0 -40 -23 -68q-30 -38 -83 -38q-55 0 -84 39q-23 29 -23 70q0 40 23 67q30 37 85 37z" />
    <glyph glyph-name="atilde" unicode="&#xe3;" horiz-adv-x="1051" vert-adv-y="2458" 
d="M728 121q-53 -57 -102 -87q-90 -54 -208 -54q-163 0 -249 92q-76 81 -76 214q0 206 173 292q101 51 300 51q41 0 150 -4v28q0 113 -29 172q-52 108 -206 108q-126 0 -268 -90l-68 112q163 103 353 103q236 0 323 -141q41 -67 48 -192q3 -44 3 -127v-339q-1 -150 8 -259
h-145zM716 506q-55 4 -117 4q-166 0 -242 -44q-100 -57 -100 -176q0 -84 50 -134q52 -51 139 -51q163 0 270 159v242zM260 1237h-106q9 78 43 128q55 81 149 81q67 0 182 -43q80 -31 117 -31q44 0 72 32q17 20 21 54h104q-9 -79 -40 -128q-52 -83 -153 -83q-61 0 -173 41
q-90 33 -128 33q-62 0 -88 -84z" />
    <glyph glyph-name="aring" unicode="&#xe5;" horiz-adv-x="1051" vert-adv-y="2458" 
d="M728 121q-53 -57 -102 -87q-90 -54 -208 -54q-163 0 -249 92q-76 81 -76 214q0 206 173 292q101 51 300 51q41 0 150 -4v28q0 113 -29 172q-52 108 -206 108q-126 0 -268 -90l-68 112q163 103 353 103q236 0 323 -141q41 -67 48 -192q3 -44 3 -127v-339q-1 -150 8 -259
h-145zM716 506q-55 4 -117 4q-166 0 -242 -44q-100 -57 -100 -176q0 -84 50 -134q52 -51 139 -51q163 0 270 159v242zM528 1567q82 0 141 -58q60 -59 60 -147t-60 -147q-59 -58 -144 -58t-144 58q-60 59 -60 147q0 90 60 147q61 58 147 58zM523 1485q-56 0 -89 -42
q-27 -35 -27 -81t27 -81q33 -42 91 -42t91 42q27 35 27 81t-27 81q-33 42 -93 42z" />
    <glyph glyph-name="ccedilla" unicode="&#xe7;" horiz-adv-x="944" vert-adv-y="2458" 
d="M839 197l60 -121q-141 -96 -315 -96q-224 0 -351 137q-133 144 -133 392q0 273 141 420q123 129 329 129q161 0 310 -83l-59 -123q-126 81 -252 81q-152 0 -229 -110q-76 -109 -76 -294q0 -199 90 -317q83 -107 232 -107q132 0 253 92zM489 -70h186l-276 -301h-152z" />
    <glyph glyph-name="eacute" unicode="&#xe9;" horiz-adv-x="1077" vert-adv-y="2458" 
d="M264 477q17 -174 80 -259q86 -113 254 -113q143 0 284 98l60 -121q-162 -102 -347 -102q-246 0 -379 161q-116 141 -116 378q0 287 155 431q116 108 297 108q277 0 372 -227q53 -128 57 -354h-717zM815 602q-3 115 -40 192q-67 139 -228 139q-154 0 -231 -137
q-44 -79 -48 -194h547zM677 1497h199l-299 -299h-150z" />
    <glyph glyph-name="egrave" unicode="&#xe8;" horiz-adv-x="1077" vert-adv-y="2458" 
d="M264 477q17 -174 80 -259q86 -113 254 -113q143 0 284 98l60 -121q-162 -102 -347 -102q-246 0 -379 161q-116 141 -116 378q0 287 155 431q116 108 297 108q277 0 372 -227q53 -128 57 -354h-717zM815 602q-3 115 -40 192q-67 139 -228 139q-154 0 -231 -137
q-44 -79 -48 -194h547zM481 1497l250 -299h-150l-299 299h199z" />
    <glyph glyph-name="ecircumflex" unicode="&#xea;" horiz-adv-x="1077" vert-adv-y="2458" 
d="M264 477q17 -174 80 -259q86 -113 254 -113q143 0 284 98l60 -121q-162 -102 -347 -102q-246 0 -379 161q-116 141 -116 378q0 287 155 431q116 108 297 108q277 0 372 -227q53 -128 57 -354h-717zM815 602q-3 115 -40 192q-67 139 -228 139q-154 0 -231 -137
q-44 -79 -48 -194h547zM566 1399l-149 -201h-150l205 299h188l205 -299h-149z" />
    <glyph glyph-name="edieresis" unicode="&#xeb;" horiz-adv-x="1077" vert-adv-y="2458" 
d="M264 477q17 -174 80 -259q86 -113 254 -113q143 0 284 98l60 -121q-162 -102 -347 -102q-246 0 -379 161q-116 141 -116 378q0 287 155 431q116 108 297 108q277 0 372 -227q53 -128 57 -354h-717zM815 602q-3 115 -40 192q-67 139 -228 139q-154 0 -231 -137
q-44 -79 -48 -194h547zM374 1454q52 0 82 -38q23 -28 23 -69q0 -40 -23 -68q-30 -38 -83 -38q-55 0 -84 39q-23 29 -23 70q0 40 23 67q30 37 85 37zM763 1454q52 0 82 -38q23 -28 23 -69q0 -40 -23 -68q-30 -38 -83 -38q-55 0 -84 39q-23 29 -23 70q0 40 23 67q30 37 85 37z
" />
    <glyph glyph-name="iacute" unicode="&#xed;" horiz-adv-x="512" vert-adv-y="2458" 
d="M178 0v1038h156v-1038h-156zM389 1497h199l-299 -299h-150z" />
    <glyph glyph-name="igrave" unicode="&#xec;" horiz-adv-x="512" vert-adv-y="2458" 
d="M178 0v1038h156v-1038h-156zM164 1497l250 -299h-150l-299 299h199z" />
    <glyph glyph-name="icircumflex" unicode="&#xee;" horiz-adv-x="512" vert-adv-y="2458" 
d="M178 0v1038h156v-1038h-156zM256 1399l-149 -201h-150l205 299h188l205 -299h-149z" />
    <glyph glyph-name="idieresis" unicode="&#xef;" horiz-adv-x="512" vert-adv-y="2458" 
d="M178 0v1038h156v-1038h-156zM63 1454q52 0 82 -38q23 -28 23 -69q0 -40 -23 -68q-30 -38 -83 -38q-55 0 -84 39q-23 29 -23 70q0 40 23 67q30 37 85 37zM452 1454q52 0 82 -38q23 -28 23 -69q0 -40 -23 -68q-30 -38 -83 -38q-55 0 -84 39q-23 29 -23 70q0 40 23 67
q30 37 85 37z" />
    <glyph glyph-name="ntilde" unicode="&#xf1;" horiz-adv-x="1190" vert-adv-y="2458" 
d="M178 0v700q-1 254 -8 338h154l6 -166q59 62 111 100q118 86 266 86q197 0 270 -144q32 -64 39 -180q4 -70 4 -134v-600h-156v603q0 156 -22 219q-39 111 -179 111q-169 0 -329 -194v-739h-156zM385 1237h-106q9 78 43 128q55 81 149 81q67 0 182 -43q80 -31 117 -31
q44 0 72 32q17 20 21 54h104q-9 -79 -40 -128q-52 -83 -153 -83q-61 0 -173 41q-90 33 -128 33q-62 0 -88 -84z" />
    <glyph glyph-name="oacute" unicode="&#xf3;" horiz-adv-x="1157" vert-adv-y="2458" 
d="M584 1058q221 0 357 -171q115 -144 115 -368q0 -241 -133 -389q-135 -150 -345 -150q-227 0 -363 171q-115 145 -115 369q0 242 133 389q134 149 351 149zM574 933q-96 0 -172 -59q-138 -108 -138 -355q0 -171 72 -282q86 -132 242 -132q169 0 254 153q60 106 60 262
q0 171 -72 281q-86 132 -246 132zM656 1497h199l-299 -299h-150z" />
    <glyph glyph-name="ograve" unicode="&#xf2;" horiz-adv-x="1157" vert-adv-y="2458" 
d="M584 1058q221 0 357 -171q115 -144 115 -368q0 -241 -133 -389q-135 -150 -345 -150q-227 0 -363 171q-115 145 -115 369q0 242 133 389q134 149 351 149zM574 933q-96 0 -172 -59q-138 -108 -138 -355q0 -171 72 -282q86 -132 242 -132q169 0 254 153q60 106 60 262
q0 171 -72 281q-86 132 -246 132zM521 1497l250 -299h-150l-299 299h199z" />
    <glyph glyph-name="ocircumflex" unicode="&#xf4;" horiz-adv-x="1157" vert-adv-y="2458" 
d="M584 1058q221 0 357 -171q115 -144 115 -368q0 -241 -133 -389q-135 -150 -345 -150q-227 0 -363 171q-115 145 -115 369q0 242 133 389q134 149 351 149zM574 933q-96 0 -172 -59q-138 -108 -138 -355q0 -171 72 -282q86 -132 242 -132q169 0 254 153q60 106 60 262
q0 171 -72 281q-86 132 -246 132zM578 1399l-149 -201h-150l205 299h188l205 -299h-149z" />
    <glyph glyph-name="odieresis" unicode="&#xf6;" horiz-adv-x="1157" vert-adv-y="2458" 
d="M584 1058q221 0 357 -171q115 -144 115 -368q0 -241 -133 -389q-135 -150 -345 -150q-227 0 -363 171q-115 145 -115 369q0 242 133 389q134 149 351 149zM574 933q-96 0 -172 -59q-138 -108 -138 -355q0 -171 72 -282q86 -132 242 -132q169 0 254 153q60 106 60 262
q0 171 -72 281q-86 132 -246 132zM385 1454q52 0 82 -38q23 -28 23 -69q0 -40 -23 -68q-30 -38 -83 -38q-55 0 -84 39q-23 29 -23 70q0 40 23 67q30 37 85 37zM774 1454q52 0 82 -38q23 -28 23 -69q0 -40 -23 -68q-30 -38 -83 -38q-55 0 -84 39q-23 29 -23 70q0 40 23 67
q30 37 85 37z" />
    <glyph glyph-name="otilde" unicode="&#xf5;" horiz-adv-x="1157" vert-adv-y="2458" 
d="M584 1058q221 0 357 -171q115 -144 115 -368q0 -241 -133 -389q-135 -150 -345 -150q-227 0 -363 171q-115 145 -115 369q0 242 133 389q134 149 351 149zM574 933q-96 0 -172 -59q-138 -108 -138 -355q0 -171 72 -282q86 -132 242 -132q169 0 254 153q60 106 60 262
q0 171 -72 281q-86 132 -246 132zM340 1237h-106q9 78 43 128q55 81 149 81q67 0 182 -43q80 -31 117 -31q44 0 72 32q17 20 21 54h104q-9 -79 -40 -128q-52 -83 -153 -83q-61 0 -173 41q-90 33 -128 33q-62 0 -88 -84z" />
    <glyph glyph-name="uacute" unicode="&#xfa;" horiz-adv-x="1178" vert-adv-y="2458" 
d="M999 1038v-700q1 -260 8 -338h-154l-6 166q-55 -59 -109 -98q-123 -88 -260 -88q-193 0 -265 144q-32 65 -39 180q-4 67 -4 134v600h156v-603q0 -157 22 -219q38 -111 173 -111q165 0 322 194v739h156zM708 1497h199l-299 -299h-150z" />
    <glyph glyph-name="ugrave" unicode="&#xf9;" horiz-adv-x="1178" vert-adv-y="2458" 
d="M999 1038v-700q1 -260 8 -338h-154l-6 166q-55 -59 -109 -98q-123 -88 -260 -88q-193 0 -265 144q-32 65 -39 180q-4 67 -4 134v600h156v-603q0 -157 22 -219q38 -111 173 -111q165 0 322 194v739h156zM532 1497l250 -299h-150l-299 299h199z" />
    <glyph glyph-name="ucircumflex" unicode="&#xfb;" horiz-adv-x="1178" vert-adv-y="2458" 
d="M999 1038v-700q1 -260 8 -338h-154l-6 166q-55 -59 -109 -98q-123 -88 -260 -88q-193 0 -265 144q-32 65 -39 180q-4 67 -4 134v600h156v-603q0 -157 22 -219q38 -111 173 -111q165 0 322 194v739h156zM589 1399l-149 -201h-150l205 299h188l205 -299h-149z" />
    <glyph glyph-name="udieresis" unicode="&#xfc;" horiz-adv-x="1178" vert-adv-y="2458" 
d="M999 1038v-700q1 -260 8 -338h-154l-6 166q-55 -59 -109 -98q-123 -88 -260 -88q-193 0 -265 144q-32 65 -39 180q-4 67 -4 134v600h156v-603q0 -157 22 -219q38 -111 173 -111q165 0 322 194v739h156zM396 1454q52 0 82 -38q23 -28 23 -69q0 -40 -23 -68
q-30 -38 -83 -38q-55 0 -84 39q-23 29 -23 70q0 40 23 67q30 37 85 37zM785 1454q52 0 82 -38q23 -28 23 -69q0 -40 -23 -68q-30 -38 -83 -38q-55 0 -84 39q-23 29 -23 70q0 40 23 67q30 37 85 37z" />
    <glyph glyph-name="dagger" unicode="&#x2020;" vert-adv-y="2458" 
d="M506 903h-375v135h375v379h164v-379h379v-135h-379v-1153h-164v1153z" />
    <glyph glyph-name="degree" unicode="&#xb0;" horiz-adv-x="680" vert-adv-y="2458" 
d="M344 1437q126 0 210 -82q85 -83 85 -212q0 -128 -85 -211q-84 -82 -214 -82t-214 82q-85 83 -85 211q0 131 85 212q86 82 218 82zM336 1361q-89 0 -147 -59q-60 -61 -60 -159q0 -97 60 -158q58 -59 151 -59t151 59q60 61 60 158q0 100 -60 159t-155 59z" />
    <glyph glyph-name="cent" unicode="&#xa2;" vert-adv-y="2458" 
d="M639 207v150q-139 12 -234 78q-199 138 -199 450q0 216 92 356q113 170 341 191v153h102v-154q128 -13 247 -82l-59 -122q-92 61 -188 77v-822q111 11 207 88l58 -119q-101 -85 -265 -95v-149h-102zM639 1306q-267 -39 -267 -403q0 -247 127 -356q57 -48 140 -63v822z
" />
    <glyph glyph-name="sterling" unicode="&#xa3;" vert-adv-y="2458" 
d="M113 0v131h148q29 40 44 112q13 72 13 273v158h-185v119h185v140q0 146 15 215q37 160 174 233q103 56 248 56q155 0 319 -71l-43 -138q-151 74 -273 74q-175 0 -240 -117q-42 -75 -42 -270v-122h350v-119h-350v-158q0 -227 -12 -291q-9 -48 -40 -94h633v-131h-944z" />
    <glyph glyph-name="section" unicode="&#xa7;" vert-adv-y="2458" 
d="M206 -239l45 131q140 -77 285 -77q127 0 193 54q63 51 63 139q0 84 -59 135q-53 45 -210 113q-159 68 -219 124q-80 73 -80 183q0 153 179 287q-69 41 -101 80q-57 69 -57 182q0 170 121 252q107 73 283 73q167 0 309 -71l-45 -131q-134 67 -263 67q-113 0 -176 -54
q-55 -48 -55 -130q0 -81 65 -129q42 -31 93 -53q36 -15 121 -51q155 -64 214 -122q70 -69 70 -179q0 -156 -160 -292q144 -82 144 -257q0 -155 -108 -254q-111 -101 -310 -101q-185 0 -342 81zM501 794q-113 -89 -113 -187q0 -103 148 -179q45 -24 188 -80q94 111 94 195
q0 95 -104 156q-21 12 -213 95z" />
    <glyph glyph-name="bullet" unicode="&#x2022;" horiz-adv-x="1024" vert-adv-y="2458" 
d="M519 1014q117 0 203 -86q87 -86 87 -208t-86 -209q-86 -86 -208 -86q-121 0 -207 85q-88 87 -88 209q0 126 87 210q89 85 212 85z" />
    <glyph glyph-name="paragraph" unicode="&#xb6;" horiz-adv-x="1229" vert-adv-y="2458" 
d="M459 -242v867q-154 0 -256 71q-77 54 -120 140q-42 85 -42 183q0 140 78 246q77 105 215 137q63 15 204 15h486v-1659h-156v1524h-253v-1524h-156z" />
    <glyph glyph-name="germandbls" unicode="&#xdf;" horiz-adv-x="1147" vert-adv-y="2458" 
d="M172 0v1038q0 113 9 172q22 156 145 240q96 67 238 67q184 0 296 -109q109 -107 109 -268q0 -174 -117 -268q-47 -37 -95 -54q-27 -9 -80 -15q83 -2 133 -19q119 -41 182 -151q54 -94 54 -216q0 -181 -105 -304q-115 -133 -334 -133q-72 0 -160 20l24 132q63 -23 130 -23
q129 0 202 78q79 84 79 231q0 164 -102 246q-89 71 -226 71q-14 0 -36 -1v125q123 5 188 57q99 77 99 221q0 104 -57 173q-68 82 -183 82q-149 0 -206 -123q-31 -67 -31 -248v-1021h-156z" />
    <glyph glyph-name="registered" unicode="&#xae;" horiz-adv-x="1229" vert-adv-y="2458" 
d="M443 735v557h170q99 0 147 -26q70 -37 70 -123q0 -99 -110 -133q33 -20 62 -83l90 -192h-115l-67 147q-30 66 -55 84q-21 15 -70 17h-16v-248h-106zM549 1050h21q149 0 149 87q0 88 -136 88h-34v-175zM621 1544q215 0 365 -142q159 -151 159 -389q0 -237 -159 -388
q-150 -142 -371 -142q-222 0 -372 142q-159 151 -159 387q0 242 159 390q153 142 378 142zM609 1483q-192 0 -319 -132q-128 -133 -128 -338q0 -204 128 -337q127 -132 325 -132q197 0 324 132q63 66 97 159q31 86 31 177q0 205 -128 339q-127 132 -330 132z" />
    <glyph glyph-name="copyright" unicode="&#xa9;" horiz-adv-x="1638" vert-adv-y="2458" 
d="M1062 478l36 -91q-116 -57 -239 -57q-168 0 -270 97q-109 103 -109 277q0 197 132 306q94 78 242 78q115 0 236 -59l-41 -90q-107 55 -193 55q-120 0 -186 -85q-63 -82 -63 -201q0 -120 63 -198q71 -86 205 -86q86 0 187 54zM829 1438q307 0 513 -207q206 -208 206 -522
q0 -313 -206 -522q-205 -207 -523 -207t-523 207q-206 210 -206 520q0 221 107 398q100 163 273 253q154 80 359 80zM810 1377q-282 0 -469 -202q-173 -187 -173 -466q0 -278 173 -466q186 -202 478 -202t478 202q173 188 173 464q0 285 -173 468q-191 202 -487 202z" />
    <glyph glyph-name="trademark" unicode="&#x2122;" horiz-adv-x="1591" vert-adv-y="2458" 
d="M656 639v778h155l251 -653l244 653h150v-778h-121v340q0 141 7 260q-44 -155 -84 -256l-134 -344h-132l-125 309q-59 144 -101 291q7 -135 7 -260v-340h-117zM221 639v684h-233v94h590v-94h-234v-684h-123z" />
    <glyph glyph-name="acute" unicode="&#xb4;" horiz-adv-x="1024" vert-adv-y="2458" 
d="M590 1497h199l-299 -299h-150z" />
    <glyph glyph-name="dieresis" unicode="&#xa8;" horiz-adv-x="1024" vert-adv-y="2458" 
d="M319 1454q52 0 82 -38q23 -28 23 -69q0 -40 -23 -68q-30 -38 -83 -38q-55 0 -84 39q-23 29 -23 70q0 40 23 67q30 37 85 37zM708 1454q52 0 82 -38q23 -28 23 -69q0 -40 -23 -68q-30 -38 -83 -38q-55 0 -84 39q-23 29 -23 70q0 40 23 67q30 37 85 37z" />
    <glyph glyph-name="notequal" unicode="&#x2260;" vert-adv-y="2458" 
d="M72 309v123h406l82 172h-488v123h546l135 283l117 -50l-111 -233h349v-123h-407l-82 -172h489v-123h-547l-134 -281l-117 50l109 231h-347z" />
    <glyph glyph-name="AE" unicode="&#xc6;" horiz-adv-x="1849" vert-adv-y="2458" 
d="M949 401h-574l-255 -401h-194l914 1417h857v-135h-584v-496h555v-135h-555v-516h615v-135h-779v401zM949 536v746h-16l-473 -746h489z" />
    <glyph glyph-name="Oslash" unicode="&#xd8;" horiz-adv-x="1475" vert-adv-y="2458" 
d="M136 39l132 163q-157 210 -157 505q0 199 74 364q163 366 551 366q175 0 302 -70q51 -28 109 -82l123 152l70 -57l-133 -164q68 -100 100 -184q57 -151 57 -324q0 -196 -74 -362q-162 -366 -553 -366q-255 0 -409 153l-121 -149zM1049 1165q-53 57 -101 85
q-90 52 -210 52q-219 0 -342 -176q-111 -157 -111 -417q0 -221 86 -380zM425 253q122 -138 312 -138q219 0 342 176q111 157 111 417q0 221 -86 381z" />
    <glyph glyph-name="infinity" unicode="&#x221e;" horiz-adv-x="1558" vert-adv-y="2458" 
d="M779 431q-58 -85 -117 -136q-112 -97 -248 -97q-141 0 -229 90q-87 88 -87 232q0 145 87 233q88 90 229 90q144 0 263 -111q50 -46 102 -123q58 86 117 137q112 97 248 97q141 0 229 -90q87 -88 87 -233q0 -144 -87 -232q-88 -90 -230 -90q-143 0 -262 110
q-50 47 -102 123zM711 520l-11 17q-122 195 -283 195q-93 0 -147 -63q-49 -56 -49 -149q0 -92 49 -148q54 -63 147 -63q99 0 185 77q63 56 99 118zM847 520l9 -16q28 -53 100 -118q83 -77 184 -77q94 0 148 63q49 57 49 148q0 93 -49 149q-54 63 -148 63q-161 0 -283 -195z
" />
    <glyph glyph-name="plusminus" unicode="&#xb1;" vert-adv-y="2458" 
d="M72 616v123h457v299h123v-299h456v-123h-456v-297h-123v297h-457zM72 0v123h1036v-123h-1036z" />
    <glyph glyph-name="lessequal" unicode="&#x2264;" vert-adv-y="2458" 
d="M72 0v123h1036v-123h-1036zM253 642l855 -284v-133l-1036 364v106l1036 364v-134z" />
    <glyph glyph-name="greaterequal" unicode="&#x2265;" vert-adv-y="2458" 
d="M72 0v123h1036v-123h-1036zM927 642l-855 283v134l1036 -364v-106l-1036 -364v133z" />
    <glyph glyph-name="yen" unicode="&#xa5;" vert-adv-y="2458" 
d="M513 0v393h-320v105h320v113l-14 27h-306v105h253l-429 674h188l393 -624l393 624h173l-428 -674h254v-105h-307l-14 -27v-113h321v-105h-321v-393h-156z" />
    <glyph glyph-name="mu" unicode="&#xb5;" vert-adv-y="2458" 
d="M170 -440v1478h156v-580q0 -181 40 -249q61 -102 193 -102q98 0 186 73q47 39 103 111v747h156v-723q0 -150 8 -315h-144l-8 162q-156 -182 -349 -182q-83 0 -135 40q-24 18 -50 57v-517h-156z" />
    <glyph glyph-name="partialdiff" unicode="&#x2202;" vert-adv-y="2458" 
d="M262 1381l65 131q286 -112 473 -352q241 -309 241 -657q0 -233 -114 -375q-119 -148 -343 -148q-199 0 -313 121q-131 139 -131 382q0 231 119 376q111 134 305 134q109 0 206 -55q-76 140 -188 243q-160 142 -320 200zM585 868q-131 0 -207 -102q-74 -100 -74 -274
q0 -152 58 -255q74 -131 228 -131q156 0 227 131q60 111 60 263q0 167 -74 266q-76 102 -218 102z" />
    <glyph glyph-name="summation" unicode="&#x2211;" vert-adv-y="2458" 
d="M106 -317v151l461 838l-461 801v147h1057v-135h-884l469 -812l-468 -855h899v-135h-1073z" />
    <glyph glyph-name="product" unicode="&#x220f;" horiz-adv-x="1352" vert-adv-y="2458" 
d="M152 -317v1937h1049v-1937h-165v1802h-719v-1802h-165z" />
    <glyph glyph-name="glyph155" horiz-adv-x="512" vert-adv-y="2458" 
 />
    <glyph glyph-name="integral" unicode="&#x222b;" horiz-adv-x="737" vert-adv-y="2458" 
d="M55 -312l35 138q58 -22 96 -22q71 0 94 65q10 29 10 138v1239q0 142 6 192q24 202 244 202q67 0 142 -26l-36 -138q-57 22 -96 22q-70 0 -93 -65q-10 -28 -10 -138v-1238q0 -143 -6 -193q-25 -202 -244 -202q-68 0 -142 26z" />
    <glyph glyph-name="ordfeminine" unicode="&#xaa;" horiz-adv-x="737" vert-adv-y="2458" 
d="M470 844l-5 58q-70 -70 -167 -70q-90 0 -141 52q-44 44 -44 122q0 191 270 191q20 0 79 -2v23q0 54 -19 83q-26 38 -94 38q-72 0 -165 -53l-36 85q112 58 213 58q150 0 197 -91q20 -38 22 -103q1 -17 1 -74v-168q0 -84 6 -149h-117zM462 1111q-27 2 -51 2
q-177 0 -177 -104q0 -35 23 -58q25 -25 67 -25q81 0 138 76v109z" />
    <glyph glyph-name="ordmasculine" unicode="&#xba;" horiz-adv-x="737" vert-adv-y="2458" 
d="M372 1429q128 0 204 -94q63 -78 63 -205q0 -136 -73 -217q-75 -82 -198 -82q-132 0 -207 94q-63 79 -63 207q0 136 73 216q75 81 201 81zM367 1335q-75 0 -118 -76q-30 -53 -30 -128q0 -84 36 -139q43 -67 113 -67q77 0 120 78q30 54 30 130q0 82 -36 137q-43 65 -115 65
z" />
    <glyph glyph-name="Omega" unicode="&#x2126;" horiz-adv-x="1415" vert-adv-y="2458" 
d="M66 0v130h348q-350 233 -350 641q0 293 189 483q182 183 454 183q273 0 455 -183q189 -190 189 -483q0 -408 -350 -641h348v-130h-554v126q381 229 381 629q0 260 -153 415q-130 132 -316 132q-185 0 -315 -132q-153 -155 -153 -415q0 -399 381 -629v-126h-554z" />
    <glyph glyph-name="ae" unicode="&#xe6;" horiz-adv-x="1649" vert-adv-y="2458" 
d="M809 166q-62 -72 -121 -112q-111 -74 -264 -74q-167 0 -254 89q-76 77 -76 206q0 197 177 283q105 50 295 50q56 0 151 -6v55q0 109 -29 168q-52 108 -206 108q-128 0 -268 -90l-68 112q163 103 353 103q238 0 328 -150q118 150 319 150q263 0 353 -227q50 -128 54 -354
h-672q15 -174 75 -258q80 -114 237 -114q132 0 261 98l60 -121q-151 -102 -328 -102q-160 0 -266 74q-59 40 -111 112zM717 479q-59 4 -118 4q-163 0 -241 -40q-100 -52 -100 -162q0 -80 50 -127q52 -49 142 -49q131 0 216 98q51 58 51 133v143zM1387 602q-3 115 -37 192
q-61 139 -208 139q-143 0 -213 -137q-40 -78 -44 -194h502z" />
    <glyph glyph-name="oslash" unicode="&#xf8;" horiz-adv-x="1157" vert-adv-y="2458" 
d="M73 27l129 142q-101 144 -101 351q0 241 133 389q135 149 347 149q184 0 317 -123l123 136l64 -58l-130 -142q102 -146 102 -352q0 -242 -133 -389q-135 -150 -347 -150q-189 0 -318 124l-123 -135zM801 828q-86 105 -222 105q-168 0 -254 -153q-60 -106 -60 -261
q0 -131 44 -232zM356 211q87 -106 222 -106q169 0 255 153q60 106 60 260q0 133 -45 235z" />
    <glyph glyph-name="questiondown" unicode="&#xbf;" horiz-adv-x="840" vert-adv-y="2458" 
d="M394 670h139v-59q-2 -168 -20 -213q-23 -60 -150 -180q-84 -78 -112 -121q-35 -54 -35 -111q0 -86 66 -134q53 -38 133 -38q114 0 280 96l43 -131q-172 -90 -340 -90q-166 0 -264 86q-92 80 -92 206q0 96 61 181q34 49 118 126q112 105 145 154q28 44 28 121v107z
M463 1059q49 0 83 -33q36 -35 36 -88q0 -52 -36 -88q-34 -33 -85 -33t-85 33q-36 36 -36 88q0 53 36 88q35 33 87 33z" />
    <glyph glyph-name="exclamdown" unicode="&#xa1;" horiz-adv-x="635" vert-adv-y="2458" 
d="M293 664h131l19 -951h-168zM361 1059q49 0 83 -33q36 -35 36 -88q0 -52 -36 -88q-34 -33 -85 -33t-85 33q-36 36 -36 88q0 53 36 88q35 33 87 33z" />
    <glyph glyph-name="logicalnot" unicode="&#xac;" vert-adv-y="2458" 
d="M926 201v454h-854v123h993v-577h-139z" />
    <glyph glyph-name="radical" unicode="&#x221a;" vert-adv-y="2458" 
d="M482 0l-199 642h-175v120h281l167 -556l473 1514h539v-125h-431l-499 -1595h-156z" />
    <glyph glyph-name="florin" unicode="&#x192;" vert-adv-y="2458" 
d="M460 674h-196v119h217l37 210q42 239 114 329q84 105 247 105q83 0 169 -25l-32 -122q-60 20 -119 20q-87 0 -131 -45q-58 -59 -97 -277l-34 -195h277v-119h-298l-87 -496q-27 -150 -40 -195q-70 -245 -318 -245q-63 0 -163 22l28 126q62 -20 115 -20q92 0 140 58
q41 49 66 164q10 46 33 178z" />
    <glyph glyph-name="approxequal" unicode="&#x2248;" vert-adv-y="2458" 
d="M163 245l-91 75q60 83 108 126q89 80 190 80q61 0 127 -31q50 -23 114 -62q78 -46 100 -56q49 -21 87 -21q80 0 147 69q14 15 72 83l91 -78q-55 -76 -107 -123q-92 -84 -192 -84q-88 0 -238 91q-73 45 -103 58q-49 21 -95 21q-71 0 -135 -65q-34 -34 -75 -83zM163 532
l-91 75q61 83 108 126q89 80 190 80q61 0 127 -31q52 -24 114 -62q79 -47 100 -56q49 -21 87 -21q80 0 147 69q15 15 72 83l91 -78q-55 -75 -107 -124q-92 -83 -192 -83q-88 0 -238 91q-73 45 -103 58q-49 21 -95 21q-71 0 -135 -65q-34 -34 -75 -83z" />
    <glyph glyph-name="Delta" unicode="&#x2206;" vert-adv-y="2458" 
d="M1173 0h-1167v129l486 1288h199l482 -1288v-129zM996 135l-406 1106l-407 -1106h813z" />
    <glyph glyph-name="guillemotleft" unicode="&#xab;" horiz-adv-x="983" vert-adv-y="2458" 
d="M658 510l239 -352l-106 -72l-317 424l317 426l106 -74zM252 510l242 -352l-107 -72l-319 424l319 426l107 -74z" />
    <glyph glyph-name="guillemotright" unicode="&#xbb;" horiz-adv-x="983" vert-adv-y="2458" 
d="M326 510l-240 352l106 74l320 -426l-320 -424l-106 72zM731 510l-239 352l106 74l317 -426l-317 -424l-106 72z" />
    <glyph glyph-name="ellipsis" unicode="&#x2026;" horiz-adv-x="1769" vert-adv-y="2458" 
d="M297 222q49 0 83 -33q36 -35 36 -88q0 -52 -36 -88q-34 -33 -85 -33t-85 33q-36 36 -36 88q0 53 36 88q35 33 87 33zM887 222q49 0 83 -33q36 -35 36 -88q0 -52 -36 -88q-34 -33 -85 -33t-85 33q-36 36 -36 88q0 53 36 88q35 33 87 33zM1477 222q49 0 83 -33
q36 -35 36 -88q0 -52 -36 -88q-34 -33 -85 -33t-85 33q-36 36 -36 88q0 53 36 88q35 33 87 33z" />
    <glyph glyph-name="glyph172" vert-adv-y="1180" 
 />
    <glyph glyph-name="Agrave" unicode="&#xc0;" horiz-adv-x="1276" vert-adv-y="2458" 
d="M897 496h-528l-174 -496h-166l504 1417h207l508 -1417h-177zM848 631l-126 373q-49 143 -87 273q-36 -121 -88 -274l-129 -372h430zM533 1845l250 -299h-150l-299 299h199z" />
    <glyph glyph-name="Atilde" unicode="&#xc3;" horiz-adv-x="1276" vert-adv-y="2458" 
d="M897 496h-528l-174 -496h-166l504 1417h207l508 -1417h-177zM848 631l-126 373q-49 143 -87 273q-36 -121 -88 -274l-129 -372h430zM400 1585h-106q9 78 43 128q55 81 149 81q67 0 182 -43q81 -31 117 -31q44 0 72 32q17 20 21 54h104q-9 -79 -40 -128q-52 -83 -153 -83
q-62 0 -173 41q-90 33 -128 33q-62 0 -88 -84z" />
    <glyph glyph-name="Otilde" unicode="&#xd5;" horiz-adv-x="1475" vert-adv-y="2458" 
d="M745 1437q294 0 458 -217q161 -213 161 -511q0 -198 -74 -363q-163 -366 -552 -366q-301 0 -466 217q-161 212 -161 512q0 196 74 362q163 366 560 366zM732 1302q-214 0 -337 -176q-110 -158 -110 -418q0 -284 131 -445q122 -148 322 -148q218 0 341 176
q111 157 111 418q0 285 -131 445q-122 148 -327 148zM500 1585h-106q9 78 43 128q55 81 149 81q67 0 182 -43q81 -31 117 -31q44 0 72 32q17 20 21 54h104q-9 -79 -40 -128q-52 -83 -153 -83q-62 0 -173 41q-90 33 -128 33q-62 0 -88 -84z" />
    <glyph glyph-name="OE" unicode="&#x152;" horiz-adv-x="1905" vert-adv-y="2458" 
d="M1784 0h-904q-218 0 -320 29q-233 65 -356 285q-93 164 -93 400q0 390 238 579q123 96 288 117q54 7 232 7h884v-135h-583v-496h555v-135h-555v-516h614v-135zM1006 1282h-128q-189 0 -271 -24q-178 -51 -263 -240q-59 -131 -59 -312q0 -318 173 -465q87 -75 231 -96
q67 -10 189 -10h128v1147z" />
    <glyph glyph-name="oe" unicode="&#x153;" horiz-adv-x="1846" vert-adv-y="2458" 
d="M968 188q-147 -208 -389 -208q-228 0 -364 171q-115 145 -115 369q0 241 133 389q135 149 345 149q245 0 387 -203q120 203 358 203q273 0 369 -227q54 -127 57 -354h-706q16 -174 78 -259q83 -113 247 -113q142 0 283 98l60 -121q-162 -102 -346 -102q-264 0 -397 208z
M575 933q-97 0 -173 -59q-138 -109 -138 -355q0 -172 72 -282q87 -132 243 -132q168 0 254 152q60 106 60 263q0 171 -72 281q-87 132 -246 132zM1584 602q-4 115 -41 192q-66 139 -226 139q-150 0 -224 -137q-42 -79 -46 -194h537z" />
    <glyph glyph-name="endash" unicode="&#x2012;" vert-adv-y="2458" 
d="M71 510v125h1038v-125h-1038z" />
    <glyph glyph-name="endash" unicode="&#x2013;" vert-adv-y="2458" 
d="M71 510v125h1038v-125h-1038z" />
    <glyph glyph-name="emdash" unicode="&#x2014;" horiz-adv-x="2048" vert-adv-y="2458" 
d="M-41 510v125h2130v-125h-2130z" />
    <glyph glyph-name="emdash" unicode="&#x2015;" horiz-adv-x="2048" vert-adv-y="2458" 
d="M-41 510v125h2130v-125h-2130z" />
    <glyph glyph-name="quotedblleft" unicode="&#x201c;" horiz-adv-x="664" vert-adv-y="2458" 
d="M187 1038h-181l181 459h143zM507 1038h-182l182 459h142z" />
    <glyph glyph-name="quotedblright" unicode="&#x201d;" horiz-adv-x="664" vert-adv-y="2458" 
d="M156 1497h182l-182 -459h-142zM476 1497h181l-181 -459h-143z" />
    <glyph glyph-name="quoteleft" unicode="&#x2018;" horiz-adv-x="344" vert-adv-y="2458" 
d="M187 1038h-181l181 459h143z" />
    <glyph glyph-name="quoteright" unicode="&#x2019;" horiz-adv-x="344" vert-adv-y="2458" 
d="M156 1497h182l-182 -459h-142z" />
    <glyph glyph-name="divide" unicode="&#xf7;" vert-adv-y="2458" 
d="M72 457v123h1036v-123h-1036zM592 962q46 0 77 -31q34 -33 34 -81q0 -49 -34 -82q-31 -31 -78 -31q-48 0 -79 31q-34 33 -34 81q0 50 34 82q32 31 80 31zM592 301q46 0 77 -31q34 -33 34 -82q0 -48 -34 -81q-31 -31 -78 -31q-48 0 -79 31q-34 33 -34 81q0 50 34 82
q32 31 80 31z" />
    <glyph glyph-name="lozenge" unicode="&#x25ca;" vert-adv-y="2458" 
d="M589 -67l-569 775l569 774l570 -774zM589 170l398 538l-398 538l-398 -538z" />
    <glyph glyph-name="ydieresis" unicode="&#xff;" horiz-adv-x="1001" vert-adv-y="2458" 
d="M433 -15l-409 1053h167l237 -621q42 -111 85 -237q41 121 87 244l230 614h146l-422 -1126q-66 -175 -141 -270q-82 -103 -239 -103q-73 0 -153 20l27 127q63 -22 116 -22q85 0 136 52q75 76 133 269zM307 1454q52 0 82 -38q23 -28 23 -69q0 -40 -23 -68q-30 -38 -83 -38
q-55 0 -84 39q-23 29 -23 70q0 40 23 67q30 37 85 37zM696 1454q52 0 82 -38q23 -28 23 -69q0 -40 -23 -68q-30 -38 -83 -38q-55 0 -84 39q-23 29 -23 70q0 40 23 67q30 37 85 37z" />
    <glyph glyph-name="Ydieresis" unicode="&#x178;" horiz-adv-x="1147" vert-adv-y="2458" 
d="M492 0v638l-496 779h193l295 -471q57 -91 97 -166q60 108 99 171l291 466h180l-495 -779v-638h-164zM380 1802q52 0 82 -38q23 -28 23 -69q0 -40 -23 -68q-29 -38 -83 -38q-55 0 -84 39q-23 29 -23 70q0 40 23 67q30 37 85 37zM769 1802q52 0 82 -38q23 -28 23 -69
q0 -40 -23 -68q-29 -38 -83 -38q-55 0 -84 39q-23 29 -23 70q0 40 23 67q30 37 85 37z" />
    <glyph glyph-name="fraction" unicode="&#x2044;" horiz-adv-x="164" vert-adv-y="2458" 
d="M-258 -41l559 1499h121l-559 -1499h-121z" />
    <glyph glyph-name="fraction" unicode="&#x2215;" horiz-adv-x="164" vert-adv-y="2458" 
d="M-258 -41l559 1499h121l-559 -1499h-121z" />
    <glyph glyph-name="currency" unicode="&#xa4;" vert-adv-y="2458" 
d="M150 195l-81 81l123 123q-100 137 -100 317q0 181 100 317l-123 123l81 81l121 -121q129 107 319 107t319 -107l121 121l82 -81l-123 -123q100 -136 100 -317t-100 -317l123 -123l-82 -81l-121 121q-129 -107 -319 -107t-319 107zM585 1114q-159 0 -263 -109
q-107 -111 -107 -289q0 -177 107 -289q104 -109 269 -109q164 0 268 109q107 112 107 288q0 181 -107 290q-58 59 -122 85q-63 24 -152 24z" />
    <glyph glyph-name="guilsinglleft" unicode="&#x2039;" horiz-adv-x="578" vert-adv-y="2458" 
d="M252 510l240 -352l-107 -72l-317 424l317 426l107 -74z" />
    <glyph glyph-name="guilsinglright" unicode="&#x203a;" horiz-adv-x="578" vert-adv-y="2458" 
d="M326 512l-240 352l106 72l318 -424l-318 -426l-106 74z" />
    <glyph glyph-name="fi" unicode="&#xea01;" horiz-adv-x="1186" vert-adv-y="2458" 
d="M234 0v913h-168v125h168v99q0 183 51 266q70 114 237 114q68 0 146 -20l-14 -135q-55 30 -119 30q-99 0 -128 -94q-17 -55 -17 -174v-86h245v-125h-245v-913h-156zM852 0v1038h156v-1038h-156zM932 1517q57 0 88 -43q21 -29 21 -68q0 -38 -21 -67q-31 -43 -89 -43
q-59 0 -90 43q-21 29 -21 67q0 39 21 68q31 43 91 43z" />
    <glyph glyph-name="fi" unicode="&#xfb01;" horiz-adv-x="1186" vert-adv-y="2458" 
d="M234 0v913h-168v125h168v99q0 183 51 266q70 114 237 114q68 0 146 -20l-14 -135q-55 30 -119 30q-99 0 -128 -94q-17 -55 -17 -174v-86h245v-125h-245v-913h-156zM852 0v1038h156v-1038h-156zM932 1517q57 0 88 -43q21 -29 21 -68q0 -38 -21 -67q-31 -43 -89 -43
q-59 0 -90 43q-21 29 -21 67q0 39 21 68q31 43 91 43z" />
    <glyph glyph-name="fi" unicode="&#xf001;" horiz-adv-x="1186" vert-adv-y="2458" 
d="M234 0v913h-168v125h168v99q0 183 51 266q70 114 237 114q68 0 146 -20l-14 -135q-55 30 -119 30q-99 0 -128 -94q-17 -55 -17 -174v-86h245v-125h-245v-913h-156zM852 0v1038h156v-1038h-156zM932 1517q57 0 88 -43q21 -29 21 -68q0 -38 -21 -67q-31 -43 -89 -43
q-59 0 -90 43q-21 29 -21 67q0 39 21 68q31 43 91 43z" />
    <glyph glyph-name="fl" unicode="&#xea02;" horiz-adv-x="1186" vert-adv-y="2458" 
d="M234 0v913h-168v125h168v99q0 183 51 266q70 114 237 114q68 0 146 -20l-14 -135q-55 30 -119 30q-99 0 -128 -94q-17 -55 -17 -174v-86h245v-125h-245v-913h-156zM852 0v1497h156v-1497h-156z" />
    <glyph glyph-name="fl" unicode="&#xfb02;" horiz-adv-x="1186" vert-adv-y="2458" 
d="M234 0v913h-168v125h168v99q0 183 51 266q70 114 237 114q68 0 146 -20l-14 -135q-55 30 -119 30q-99 0 -128 -94q-17 -55 -17 -174v-86h245v-125h-245v-913h-156zM852 0v1497h156v-1497h-156z" />
    <glyph glyph-name="fl" unicode="&#xf002;" horiz-adv-x="1186" vert-adv-y="2458" 
d="M234 0v913h-168v125h168v99q0 183 51 266q70 114 237 114q68 0 146 -20l-14 -135q-55 30 -119 30q-99 0 -128 -94q-17 -55 -17 -174v-86h245v-125h-245v-913h-156zM852 0v1497h156v-1497h-156z" />
    <glyph glyph-name="daggerdbl" unicode="&#x2021;" vert-adv-y="2458" 
d="M506 903h-375v135h375v379h164v-379h379v-135h-379v-475h379v-135h-379v-543h-164v543h-375v135h375v475z" />
    <glyph glyph-name="periodcentered" unicode="&#xb7;" horiz-adv-x="590" vert-adv-y="2458" 
d="M297 694q49 0 83 -33q36 -35 36 -88q0 -52 -36 -88q-34 -33 -85 -33t-85 33q-36 36 -36 88q0 53 36 88q35 33 87 33z" />
    <glyph glyph-name="periodcentered" unicode="&#x22c5;" horiz-adv-x="590" vert-adv-y="2458" 
d="M297 694q49 0 83 -33q36 -35 36 -88q0 -52 -36 -88q-34 -33 -85 -33t-85 33q-36 36 -36 88q0 53 36 88q35 33 87 33z" />
    <glyph glyph-name="periodcentered" unicode="&#x2219;" horiz-adv-x="590" vert-adv-y="2458" 
d="M297 694q49 0 83 -33q36 -35 36 -88q0 -52 -36 -88q-34 -33 -85 -33t-85 33q-36 36 -36 88q0 53 36 88q35 33 87 33z" />
    <glyph glyph-name="periodcentered" unicode="&#x387;" horiz-adv-x="590" vert-adv-y="2458" 
d="M297 694q49 0 83 -33q36 -35 36 -88q0 -52 -36 -88q-34 -33 -85 -33t-85 33q-36 36 -36 88q0 53 36 88q35 33 87 33z" />
    <glyph glyph-name="quotesinglbase" unicode="&#x201a;" horiz-adv-x="344" vert-adv-y="2458" 
d="M136 205h182l-182 -459h-142z" />
    <glyph glyph-name="quotedblbase" unicode="&#x201e;" horiz-adv-x="664" vert-adv-y="2458" 
d="M136 205h182l-182 -459h-142zM456 205h181l-181 -459h-143z" />
    <glyph glyph-name="perthousand" unicode="&#x2030;" horiz-adv-x="2226" vert-adv-y="2458" 
d="M368 1429q175 0 241 -147q42 -92 42 -254q0 -182 -53 -276q-69 -126 -235 -126q-178 0 -245 147q-42 92 -42 255q0 181 52 276q70 125 240 125zM362 1335q-88 0 -129 -97q-30 -69 -30 -211q0 -307 161 -307q160 0 160 308q0 307 -162 307zM435 -41l559 1499h120
l-559 -1499h-120zM1186 791q175 0 241 -147q42 -93 42 -254q0 -181 -53 -276q-69 -126 -235 -126q-179 0 -246 147q-42 92 -42 255q0 181 53 276q69 125 240 125zM1179 697q-88 0 -129 -97q-30 -70 -30 -211q0 -307 161 -307t161 308q0 307 -163 307zM1867 791
q175 0 241 -147q42 -92 42 -254q0 -182 -53 -277q-69 -125 -235 -125q-178 0 -245 147q-42 92 -42 255q0 181 52 276q70 125 240 125zM1861 697q-88 0 -129 -97q-30 -70 -30 -211q0 -307 161 -307q160 0 160 308q0 307 -162 307z" />
    <glyph glyph-name="Acircumflex" unicode="&#xc2;" horiz-adv-x="1276" vert-adv-y="2458" 
d="M897 496h-528l-174 -496h-166l504 1417h207l508 -1417h-177zM848 631l-126 373q-49 143 -87 273q-36 -121 -88 -274l-129 -372h430zM638 1747l-149 -201h-150l205 299h188l205 -299h-149z" />
    <glyph glyph-name="Ecircumflex" unicode="&#xca;" horiz-adv-x="1083" vert-adv-y="2458" 
d="M184 0v1417h748v-135h-584v-496h555v-135h-555v-516h614v-135h-778zM558 1747l-149 -201h-150l205 299h188l205 -299h-149z" />
    <glyph glyph-name="Aacute" unicode="&#xc1;" horiz-adv-x="1276" vert-adv-y="2458" 
d="M897 496h-528l-174 -496h-166l504 1417h207l508 -1417h-177zM848 631l-126 373q-49 143 -87 273q-36 -121 -88 -274l-129 -372h430zM771 1845h199l-299 -299h-150z" />
    <glyph glyph-name="Edieresis" unicode="&#xcb;" horiz-adv-x="1083" vert-adv-y="2458" 
d="M184 0v1417h748v-135h-584v-496h555v-135h-555v-516h614v-135h-778zM369 1802q52 0 82 -38q23 -28 23 -69q0 -40 -23 -68q-29 -38 -83 -38q-55 0 -84 39q-23 29 -23 70q0 40 23 67q30 37 85 37zM758 1802q52 0 82 -38q23 -28 23 -69q0 -40 -23 -68q-29 -38 -83 -38
q-55 0 -84 39q-23 29 -23 70q0 40 23 67q30 37 85 37z" />
    <glyph glyph-name="Egrave" unicode="&#xc8;" horiz-adv-x="1083" vert-adv-y="2458" 
d="M184 0v1417h748v-135h-584v-496h555v-135h-555v-516h614v-135h-778zM484 1845l250 -299h-150l-299 299h199z" />
    <glyph glyph-name="Iacute" unicode="&#xcd;" horiz-adv-x="532" vert-adv-y="2458" 
d="M184 0v1417h164v-1417h-164zM399 1845h199l-299 -299h-150z" />
    <glyph glyph-name="Icircumflex" unicode="&#xce;" horiz-adv-x="532" vert-adv-y="2458" 
d="M184 0v1417h164v-1417h-164zM266 1747l-149 -201h-150l205 299h188l205 -299h-149z" />
    <glyph glyph-name="Idieresis" unicode="&#xcf;" horiz-adv-x="532" vert-adv-y="2458" 
d="M184 0v1417h164v-1417h-164zM73 1802q52 0 82 -38q23 -28 23 -69q0 -40 -23 -68q-29 -38 -83 -38q-55 0 -84 39q-23 29 -23 70q0 40 23 67q30 37 85 37zM462 1802q52 0 82 -38q23 -28 23 -69q0 -40 -23 -68q-29 -38 -83 -38q-55 0 -84 39q-23 29 -23 70q0 40 23 67
q30 37 85 37z" />
    <glyph glyph-name="Igrave" unicode="&#xcc;" horiz-adv-x="532" vert-adv-y="2458" 
d="M184 0v1417h164v-1417h-164zM147 1845l250 -299h-150l-299 299h199z" />
    <glyph glyph-name="Oacute" unicode="&#xd3;" horiz-adv-x="1475" vert-adv-y="2458" 
d="M745 1437q294 0 458 -217q161 -213 161 -511q0 -198 -74 -363q-163 -366 -552 -366q-301 0 -466 217q-161 212 -161 512q0 196 74 362q163 366 560 366zM732 1302q-214 0 -337 -176q-110 -158 -110 -418q0 -284 131 -445q122 -148 322 -148q218 0 341 176
q111 157 111 418q0 285 -131 445q-122 148 -327 148zM816 1845h199l-299 -299h-150z" />
    <glyph glyph-name="Ocircumflex" unicode="&#xd4;" horiz-adv-x="1475" vert-adv-y="2458" 
d="M745 1437q294 0 458 -217q161 -213 161 -511q0 -198 -74 -363q-163 -366 -552 -366q-301 0 -466 217q-161 212 -161 512q0 196 74 362q163 366 560 366zM732 1302q-214 0 -337 -176q-110 -158 -110 -418q0 -284 131 -445q122 -148 322 -148q218 0 341 176
q111 157 111 418q0 285 -131 445q-122 148 -327 148zM738 1747l-149 -201h-150l205 299h188l205 -299h-149z" />
    <glyph glyph-name="Euro" vert-adv-y="2458" 
d="M8 528l38 110h180q-3 36 -3 63q0 29 3 77h-218l38 110h195q43 220 169 363q162 186 423 186q161 0 331 -85l-47 -129q-153 83 -287 83q-323 0 -422 -418h593l-38 -110h-570q-4 -38 -4 -98q0 -25 2 -42h523l-38 -109h-474q66 -418 419 -418q154 0 317 75l41 -127
q-191 -79 -363 -79q-308 0 -459 208q-99 135 -121 340h-228z" />
    <glyph glyph-name="Euro" unicode="&#x20ac;" vert-adv-y="2458" 
d="M8 528l38 110h180q-3 36 -3 63q0 29 3 77h-218l38 110h195q43 220 169 363q162 186 423 186q161 0 331 -85l-47 -129q-153 83 -287 83q-323 0 -422 -418h593l-38 -110h-570q-4 -38 -4 -98q0 -25 2 -42h523l-38 -109h-474q66 -418 419 -418q154 0 317 75l41 -127
q-191 -79 -363 -79q-308 0 -459 208q-99 135 -121 340h-228z" />
    <glyph glyph-name="Ograve" unicode="&#xd2;" horiz-adv-x="1475" vert-adv-y="2458" 
d="M745 1437q294 0 458 -217q161 -213 161 -511q0 -198 -74 -363q-163 -366 -552 -366q-301 0 -466 217q-161 212 -161 512q0 196 74 362q163 366 560 366zM732 1302q-214 0 -337 -176q-110 -158 -110 -418q0 -284 131 -445q122 -148 322 -148q218 0 341 176
q111 157 111 418q0 285 -131 445q-122 148 -327 148zM681 1845l250 -299h-150l-299 299h199z" />
    <glyph glyph-name="Uacute" unicode="&#xda;" horiz-adv-x="1362" vert-adv-y="2458" 
d="M172 1417h164v-860q0 -138 18 -210q36 -143 141 -196q72 -36 185 -36q207 0 289 122q65 97 65 289v891h156v-792q0 -236 -17 -314q-36 -170 -184 -259q-121 -72 -309 -72q-319 0 -443 204q-54 88 -61 247q-4 78 -4 194v792zM807 1845h199l-299 -299h-150z" />
    <glyph glyph-name="Ucircumflex" unicode="&#xdb;" horiz-adv-x="1362" vert-adv-y="2458" 
d="M172 1417h164v-860q0 -138 18 -210q36 -143 141 -196q72 -36 185 -36q207 0 289 122q65 97 65 289v891h156v-792q0 -236 -17 -314q-36 -170 -184 -259q-121 -72 -309 -72q-319 0 -443 204q-54 88 -61 247q-4 78 -4 194v792zM681 1747l-149 -201h-150l205 299h188
l205 -299h-149z" />
    <glyph glyph-name="Ugrave" unicode="&#xd9;" horiz-adv-x="1362" vert-adv-y="2458" 
d="M172 1417h164v-860q0 -138 18 -210q36 -143 141 -196q72 -36 185 -36q207 0 289 122q65 97 65 289v891h156v-792q0 -236 -17 -314q-36 -170 -184 -259q-121 -72 -309 -72q-319 0 -443 204q-54 88 -61 247q-4 78 -4 194v792zM624 1845l250 -299h-150l-299 299h199z" />
    <glyph glyph-name="dotlessi" unicode="&#x131;" horiz-adv-x="512" vert-adv-y="2458" 
d="M178 0v1038h156v-1038h-156z" />
    <glyph glyph-name="circumflex" unicode="&#x2c6;" horiz-adv-x="1024" vert-adv-y="2458" 
d="M512 1399l-149 -201h-150l205 299h188l205 -299h-149z" />
    <glyph glyph-name="tilde" unicode="&#x2dc;" horiz-adv-x="1024" vert-adv-y="2458" 
d="M274 1237h-106q9 78 43 128q55 81 149 81q67 0 182 -43q80 -31 117 -31q44 0 72 32q17 20 21 54h104q-9 -79 -40 -128q-52 -83 -153 -83q-61 0 -173 41q-90 33 -128 33q-62 0 -88 -84z" />
    <glyph glyph-name="macron" unicode="&#x2c9;" horiz-adv-x="1024" vert-adv-y="2458" 
d="M214 1282v119h595v-119h-595z" />
    <glyph glyph-name="breve" unicode="&#x2d8;" horiz-adv-x="1024" vert-adv-y="2458" 
d="M211 1497h135q6 -83 40 -130q45 -63 126 -63q87 0 133 74q26 44 32 119h135q-6 -113 -51 -181q-82 -123 -249 -123q-168 0 -250 123q-45 68 -51 181z" />
    <glyph glyph-name="dotaccent" unicode="&#x2d9;" horiz-adv-x="1024" vert-adv-y="2458" 
d="M514 1454q52 0 82 -38q23 -28 23 -69q0 -40 -23 -68q-30 -38 -83 -38q-55 0 -84 39q-23 29 -23 70q0 40 23 67q30 37 85 37z" />
    <glyph glyph-name="ring" unicode="&#x2da;" horiz-adv-x="1024" vert-adv-y="2458" 
d="M515 1567q82 0 141 -58q60 -59 60 -147t-60 -147q-59 -58 -144 -58t-144 58q-60 59 -60 147q0 90 60 147q61 58 147 58zM510 1485q-56 0 -89 -42q-27 -35 -27 -81t27 -81q33 -42 91 -42t91 42q27 35 27 81t-27 81q-33 42 -93 42z" />
    <glyph glyph-name="cedilla" unicode="&#xb8;" horiz-adv-x="1024" vert-adv-y="2458" 
d="M529 -70h186l-276 -301h-152z" />
    <glyph glyph-name="hungarumlaut" unicode="&#x2dd;" horiz-adv-x="1024" vert-adv-y="2458" 
d="M466 1497h190l-258 -299h-141zM786 1497h190l-258 -299h-141z" />
    <glyph glyph-name="ogonek" unicode="&#x2db;" horiz-adv-x="1024" vert-adv-y="2458" 
d="M573 -322l17 -98q-95 -26 -150 -26q-89 0 -146 42q-65 48 -65 130q0 123 134 211q41 27 128 63h99q-97 -62 -130 -89q-94 -79 -94 -156q0 -44 31 -69q31 -24 77 -24q34 0 99 16z" />
    <glyph glyph-name="caron" unicode="&#x2c7;" horiz-adv-x="1024" vert-adv-y="2458" 
d="M512 1296l150 201h149l-205 -299h-188l-205 299h150z" />
    <glyph glyph-name="brokenbar" unicode="&#xa6;" horiz-adv-x="590" vert-adv-y="2458" 
d="M213 860v557h164v-557h-164zM213 0v557h164v-557h-164z" />
    <glyph glyph-name="macron" unicode="&#xaf;" horiz-adv-x="1024" vert-adv-y="2458" 
d="M-32 1595v125h1089v-125h-1089z" />
    <glyph glyph-name="macron" unicode="&#x203e;" horiz-adv-x="1024" vert-adv-y="2458" 
d="M-32 1595v125h1089v-125h-1089z" />
    <glyph glyph-name="twosuperior" unicode="&#xb2;" horiz-adv-x="737" vert-adv-y="2458" 
d="M97 639v94q180 155 264 248q133 145 133 241q0 48 -36 78q-41 35 -108 35q-84 0 -200 -69l-38 96q134 67 249 67q106 0 178 -46q82 -52 82 -153q0 -94 -62 -182q-100 -143 -304 -315h373v-94h-531z" />
    <glyph glyph-name="threesuperior" unicode="&#xb3;" horiz-adv-x="737" vert-adv-y="2458" 
d="M92 665l27 98q111 -39 196 -39q72 0 118 33q57 43 57 109q0 70 -69 107q-59 32 -154 32q-31 0 -69 -6v98q42 -4 68 -4q85 0 141 31q73 40 73 104q0 47 -39 76q-41 31 -106 31q-79 0 -190 -43l-26 97q113 40 230 40q120 0 192 -54q66 -50 66 -138q0 -133 -150 -185
q160 -42 160 -193q0 -113 -93 -178q-80 -55 -198 -55q-100 0 -234 39z" />
    <glyph glyph-name="onesuperior" unicode="&#xb9;" horiz-adv-x="737" vert-adv-y="2458" 
d="M350 639v657l-164 -96l-46 85l220 132h107v-778h-117z" />
    <glyph glyph-name="onequarter" unicode="&#xbc;" horiz-adv-x="1544" vert-adv-y="2458" 
d="M301 639v657l-164 -96l-46 85l220 132h107v-778h-117zM384 -41l559 1499h121l-560 -1499h-120zM1191 0v201h-357v110l344 467h136v-483h123v-94h-123v-201h-123zM1195 295v340l-246 -340h246z" />
    <glyph glyph-name="onehalf" unicode="&#xbd;" horiz-adv-x="1544" vert-adv-y="2458" 
d="M288 639v657l-164 -96l-46 85l220 132h107v-778h-117zM343 -41l559 1499h121l-559 -1499h-121zM873 0v94q179 155 264 248q133 144 133 241q0 48 -36 78q-41 35 -108 35q-84 0 -200 -69l-38 96q134 67 249 67q106 0 178 -46q82 -52 82 -153q0 -94 -62 -182
q-101 -143 -305 -315h374v-94h-531z" />
    <glyph glyph-name="threequarters" unicode="&#xbe;" horiz-adv-x="1544" vert-adv-y="2458" 
d="M65 665l27 98q111 -39 196 -39q72 0 118 33q57 43 57 109q0 70 -69 107q-59 32 -154 32q-31 0 -69 -6v98q42 -4 68 -4q85 0 141 31q73 40 73 104q0 47 -39 76q-41 31 -106 31q-79 0 -190 -43l-26 97q113 40 230 40q120 0 192 -54q66 -50 66 -138q0 -133 -150 -185
q160 -42 160 -193q0 -113 -93 -178q-80 -55 -198 -55q-100 0 -234 39zM453 -41l559 1499h121l-559 -1499h-121zM1213 0v201h-358v110l345 467h136v-483h122v-94h-122v-201h-123zM1217 295v340l-247 -340h247z" />
    <glyph glyph-name="Eth" unicode="&#xd0;" horiz-adv-x="1343" vert-adv-y="2458" 
d="M184 668h-170v106h170v643h317q165 0 273 -19q237 -43 353 -239q105 -178 105 -442q0 -255 -98 -431q-120 -215 -366 -264q-113 -22 -289 -22h-295v668zM348 668v-533h143q251 0 375 91q97 71 149 211q43 115 43 269q0 234 -92 389q-87 145 -260 174q-77 13 -239 13h-119
v-508h305v-106h-305z" />
    <glyph glyph-name="Eth" unicode="&#x110;" horiz-adv-x="1343" vert-adv-y="2458" 
d="M184 668h-170v106h170v643h317q165 0 273 -19q237 -43 353 -239q105 -178 105 -442q0 -255 -98 -431q-120 -215 -366 -264q-113 -22 -289 -22h-295v668zM348 668v-533h143q251 0 375 91q97 71 149 211q43 115 43 269q0 234 -92 389q-87 145 -260 174q-77 13 -239 13h-119
v-508h305v-106h-305z" />
    <glyph glyph-name="multiply" unicode="&#xd7;" vert-adv-y="2458" 
d="M502 518l-352 352l88 88l352 -352l353 353l88 -88l-353 -353l352 -352l-88 -88l-352 352l-353 -353l-88 88z" />
    <glyph glyph-name="Yacute" unicode="&#xdd;" horiz-adv-x="1147" vert-adv-y="2458" 
d="M492 0v638l-496 779h193l295 -471q57 -91 97 -166q60 108 99 171l291 466h180l-495 -779v-638h-164zM720 1845h199l-299 -299h-150z" />
    <glyph glyph-name="Thorn" unicode="&#xde;" horiz-adv-x="1042" vert-adv-y="2458" 
d="M184 0v1417h164v-284h110q249 0 369 -75q90 -57 133 -163q33 -80 33 -174q0 -151 -83 -252q-127 -155 -452 -155h-110v-314h-164zM348 451h67q202 0 287 45q117 62 117 226q0 90 -42 159q-50 83 -154 103q-75 15 -182 15h-93v-548z" />
    <glyph glyph-name="eth" unicode="&#xf0;" horiz-adv-x="1102" vert-adv-y="2458" 
d="M222 1381l65 131q155 -59 298 -174l275 131l41 -90l-236 -112q116 -118 200 -262q136 -236 136 -502q0 -233 -114 -375q-119 -148 -343 -148q-199 0 -313 121q-131 139 -131 386q0 225 116 366q116 140 309 140q108 0 205 -55q-83 153 -208 261l-271 -129l-41 90l223 106
q-114 79 -211 115zM546 868q-131 0 -208 -102q-74 -99 -74 -274q0 -152 58 -255q74 -131 228 -131q156 0 227 131q60 111 60 263q0 167 -74 266q-77 102 -217 102z" />
    <glyph glyph-name="yacute" unicode="&#xfd;" horiz-adv-x="1001" vert-adv-y="2458" 
d="M433 -15l-409 1053h167l237 -621q42 -111 85 -237q41 121 87 244l230 614h146l-422 -1126q-66 -175 -141 -270q-82 -103 -239 -103q-73 0 -153 20l27 127q63 -22 116 -22q85 0 136 52q75 76 133 269zM654 1497h199l-299 -299h-150z" />
    <glyph glyph-name="thorn" unicode="&#xfe;" horiz-adv-x="1149" vert-adv-y="2458" 
d="M178 -440v1937h156v-615q62 73 114 111q88 65 197 65q198 0 316 -193q88 -144 88 -355q0 -257 -137 -407q-112 -123 -273 -123q-185 0 -305 163v-583h-156zM334 299q100 -194 275 -194q143 0 215 131q61 112 61 278q0 172 -63 287q-72 132 -212 132q-155 0 -276 -196
v-438z" />
    <glyph glyph-name="Amacron" unicode="&#x100;" horiz-adv-x="1276" vert-adv-y="2458" 
d="M897 496h-528l-174 -496h-166l504 1417h207l508 -1417h-177zM848 631l-126 373q-49 143 -87 273q-36 -121 -88 -274l-129 -372h430zM341 1602v119h595v-119h-595z" />
    <glyph glyph-name="amacron" unicode="&#x101;" horiz-adv-x="1051" vert-adv-y="2458" 
d="M728 121q-53 -57 -102 -87q-90 -54 -208 -54q-163 0 -249 92q-76 81 -76 214q0 206 173 292q101 51 300 51q41 0 150 -4v28q0 113 -29 172q-52 108 -206 108q-126 0 -268 -90l-68 112q163 103 353 103q236 0 323 -141q41 -67 48 -192q3 -44 3 -127v-339q-1 -150 8 -259
h-145zM716 506q-55 4 -117 4q-166 0 -242 -44q-100 -57 -100 -176q0 -84 50 -134q52 -51 139 -51q163 0 270 159v242zM214 1282v119h595v-119h-595z" />
    <glyph glyph-name="Abreve" unicode="&#x102;" horiz-adv-x="1276" vert-adv-y="2458" 
d="M897 496h-528l-174 -496h-166l504 1417h207l508 -1417h-177zM848 631l-126 373q-49 143 -87 273q-36 -121 -88 -274l-129 -372h430zM338 1845h135q15 -193 166 -193q150 0 165 193h135q-5 -109 -47 -176q-79 -128 -253 -128q-175 0 -254 128q-42 67 -47 176z" />
    <glyph glyph-name="abreve" unicode="&#x103;" horiz-adv-x="1051" vert-adv-y="2458" 
d="M728 121q-53 -57 -102 -87q-90 -54 -208 -54q-163 0 -249 92q-76 81 -76 214q0 206 173 292q101 51 300 51q41 0 150 -4v28q0 113 -29 172q-52 108 -206 108q-126 0 -268 -90l-68 112q163 103 353 103q236 0 323 -141q41 -67 48 -192q3 -44 3 -127v-339q-1 -150 8 -259
h-145zM716 506q-55 4 -117 4q-166 0 -242 -44q-100 -57 -100 -176q0 -84 50 -134q52 -51 139 -51q163 0 270 159v242zM218 1497h135q6 -83 40 -130q45 -63 126 -63q87 0 133 74q26 44 32 119h135q-6 -113 -51 -181q-82 -123 -249 -123q-168 0 -250 123q-45 68 -51 181z" />
    <glyph glyph-name="Aogonek" unicode="&#x104;" horiz-adv-x="1276" vert-adv-y="2458" 
d="M29 0l504 1417h207l508 -1417q-97 -61 -130 -89q-94 -79 -94 -156q0 -44 31 -69q31 -24 76 -24q35 0 100 16l17 -98q-95 -26 -151 -26q-88 0 -145 42q-65 48 -65 130q0 123 134 211q41 28 128 63h-78l-174 496h-528l-174 -496h-166zM848 631l-126 373q-49 143 -87 273
q-34 -116 -88 -274l-129 -372h430z" />
    <glyph glyph-name="aogonek" unicode="&#x105;" horiz-adv-x="1051" vert-adv-y="2458" 
d="M880 0q-99 -64 -130 -89q-94 -79 -94 -156q0 -44 31 -69q31 -24 77 -24q34 0 100 16l16 -98q-95 -26 -150 -26q-89 0 -146 42q-65 48 -65 130q0 123 134 211q41 27 128 63h-46l-7 121q-53 -57 -102 -87q-90 -54 -208 -54q-163 0 -249 92q-76 81 -76 214q0 206 173 292
q101 51 299 51q48 0 151 -4v28q0 113 -29 172q-52 108 -206 108q-126 0 -268 -90l-68 112q163 103 353 103q236 0 323 -141q41 -67 48 -192q3 -44 3 -127v-339q-1 -150 8 -259zM716 506q-55 4 -117 4q-166 0 -242 -44q-100 -57 -100 -176q0 -84 50 -134q52 -51 139 -51
q163 0 270 159v242z" />
    <glyph glyph-name="Cacute" unicode="&#x106;" horiz-adv-x="1202" vert-adv-y="2458" 
d="M1112 190l41 -131q-203 -79 -381 -79q-292 0 -470 188q-191 202 -191 530q0 227 90 402q100 193 277 277q128 60 286 60q185 0 381 -88l-53 -131q-176 84 -325 84q-234 0 -358 -177q-124 -178 -124 -428q0 -172 64 -313q69 -153 206 -222q94 -47 218 -47q167 0 339 75z
M886 1845h199l-299 -299h-150z" />
    <glyph glyph-name="cacute" unicode="&#x107;" horiz-adv-x="944" vert-adv-y="2458" 
d="M839 197l60 -121q-141 -96 -315 -96q-224 0 -351 137q-133 144 -133 392q0 273 141 420q123 129 329 129q161 0 310 -83l-59 -123q-126 81 -252 81q-152 0 -229 -110q-76 -109 -76 -294q0 -199 90 -317q83 -107 232 -107q132 0 253 92zM660 1497h199l-299 -299h-150z" />
    <glyph glyph-name="Ccircumflex" unicode="&#x108;" horiz-adv-x="1202" vert-adv-y="2458" 
d="M1112 190l41 -131q-203 -79 -381 -79q-292 0 -470 188q-191 202 -191 530q0 227 90 402q100 193 277 277q128 60 286 60q185 0 381 -88l-53 -131q-176 84 -325 84q-234 0 -358 -177q-124 -178 -124 -428q0 -172 64 -313q69 -153 206 -222q94 -47 218 -47q167 0 339 75z
M753 1747l-149 -201h-150l205 299h188l205 -299h-149z" />
    <glyph glyph-name="ccircumflex" unicode="&#x109;" horiz-adv-x="944" vert-adv-y="2458" 
d="M839 197l60 -121q-141 -96 -315 -96q-224 0 -351 137q-133 144 -133 392q0 273 141 420q123 129 329 129q161 0 310 -83l-59 -123q-126 81 -252 81q-152 0 -229 -110q-76 -109 -76 -294q0 -199 90 -317q83 -107 232 -107q132 0 253 92zM561 1399l-149 -201h-150l205 299
h188l205 -299h-149z" />
    <glyph glyph-name="Cdotaccent" unicode="&#x10a;" horiz-adv-x="1202" vert-adv-y="2458" 
d="M1112 190l41 -131q-203 -79 -381 -79q-292 0 -470 188q-191 202 -191 530q0 227 90 402q100 193 277 277q128 60 286 60q185 0 381 -88l-53 -131q-176 84 -325 84q-234 0 -358 -177q-124 -178 -124 -428q0 -172 64 -313q69 -153 206 -222q94 -47 218 -47q167 0 339 75z
M803 1802q52 0 82 -38q23 -28 23 -69q0 -40 -23 -68q-29 -38 -83 -38q-55 0 -84 39q-23 29 -23 70q0 40 23 67q30 37 85 37z" />
    <glyph glyph-name="cdotaccent" unicode="&#x10b;" horiz-adv-x="944" vert-adv-y="2458" 
d="M839 197l60 -121q-141 -96 -315 -96q-224 0 -351 137q-133 144 -133 392q0 273 141 420q123 129 329 129q161 0 310 -83l-59 -123q-126 81 -252 81q-152 0 -229 -110q-76 -109 -76 -294q0 -199 90 -317q83 -107 232 -107q132 0 253 92zM583 1454q52 0 82 -38
q23 -28 23 -69q0 -40 -23 -68q-30 -38 -83 -38q-55 0 -84 39q-23 29 -23 70q0 40 23 67q30 37 85 37z" />
    <glyph glyph-name="Ccaron" unicode="&#x10c;" horiz-adv-x="1202" vert-adv-y="2458" 
d="M1112 190l41 -131q-203 -79 -381 -79q-292 0 -470 188q-191 202 -191 530q0 227 90 402q100 193 277 277q128 60 286 60q185 0 381 -88l-53 -131q-176 84 -325 84q-234 0 -358 -177q-124 -178 -124 -428q0 -172 64 -313q69 -153 206 -222q94 -47 218 -47q167 0 339 75z
M787 1657l150 201h149l-205 -299h-188l-205 299h150z" />
    <glyph glyph-name="ccaron" unicode="&#x10d;" horiz-adv-x="944" vert-adv-y="2458" 
d="M839 197l60 -121q-141 -96 -315 -96q-224 0 -351 137q-133 144 -133 392q0 273 141 420q123 129 329 129q161 0 310 -83l-59 -123q-126 81 -252 81q-152 0 -229 -110q-76 -109 -76 -294q0 -199 90 -317q83 -107 232 -107q132 0 253 92zM558 1296l150 201h149l-205 -299
h-188l-205 299h150z" />
    <glyph glyph-name="Dcaron" unicode="&#x10e;" horiz-adv-x="1343" vert-adv-y="2458" 
d="M184 0v1417h317q165 0 274 -19q237 -43 353 -239q105 -178 105 -442q0 -256 -98 -431q-121 -215 -367 -264q-113 -22 -289 -22h-295zM348 135h143q252 0 376 91q97 71 149 211q43 115 43 269q0 233 -93 389q-86 145 -260 174q-76 13 -239 13h-119v-1147zM616 1657
l150 201h149l-205 -299h-188l-205 299h150z" />
    <glyph glyph-name="dcaron" unicode="&#x10f;" horiz-adv-x="1331" vert-adv-y="2458" 
d="M814 1497h156v-1119q0 -155 7 -341l1 -37h-147l-5 158q-57 -74 -99 -108q-86 -70 -211 -70q-189 0 -304 155q-113 153 -113 391q0 250 128 399q114 133 281 133q185 0 306 -163v602zM814 739q-100 194 -275 194q-132 0 -202 -110q-74 -117 -74 -301q0 -171 63 -286
q72 -131 215 -131q109 0 193 87q37 40 80 107v440zM1248 1497h182l-182 -459h-142z" />
    <glyph glyph-name="dcroat" unicode="&#x111;" horiz-adv-x="1149" vert-adv-y="2458" 
d="M970 1339h143v-119h-143v-842q0 -154 5 -295l3 -83h-147l-5 158q-57 -74 -99 -108q-85 -70 -210 -70q-189 0 -304 155q-113 153 -113 392q0 250 128 399q115 133 281 133q185 0 305 -164v325h-296v119h296v158h156v-158zM814 739q-100 195 -274 195q-132 0 -202 -110
q-74 -117 -74 -301q0 -171 63 -286q72 -132 215 -132q109 0 192 87q38 40 80 107v440z" />
    <glyph glyph-name="Emacron" unicode="&#x112;" horiz-adv-x="1083" vert-adv-y="2458" 
d="M184 0v1417h748v-135h-584v-496h555v-135h-555v-516h614v-135h-778zM244 1602v119h595v-119h-595z" />
    <glyph glyph-name="emacron" unicode="&#x113;" horiz-adv-x="1077" vert-adv-y="2458" 
d="M264 477q17 -174 80 -259q86 -113 254 -113q143 0 284 98l60 -121q-162 -102 -347 -102q-246 0 -379 161q-116 141 -116 378q0 287 155 431q116 108 297 108q277 0 372 -227q53 -128 57 -354h-717zM815 602q-3 115 -40 192q-67 139 -228 139q-154 0 -231 -137
q-44 -79 -48 -194h547zM254 1282v119h595v-119h-595z" />
    <glyph glyph-name="Ebreve" unicode="&#x114;" horiz-adv-x="1083" vert-adv-y="2458" 
d="M184 0v1417h748v-135h-584v-496h555v-135h-555v-516h614v-135h-778zM262 1845h135q15 -193 166 -193q150 0 165 193h135q-5 -109 -47 -176q-79 -128 -253 -128q-175 0 -254 128q-42 67 -47 176z" />
    <glyph glyph-name="Edotaccent" unicode="&#x116;" horiz-adv-x="1083" vert-adv-y="2458" 
d="M184 0v1417h748v-135h-584v-496h555v-135h-555v-516h614v-135h-778zM576 1802q52 0 82 -38q23 -28 23 -69q0 -40 -23 -68q-29 -38 -83 -38q-55 0 -84 39q-23 29 -23 70q0 40 23 67q30 37 85 37z" />
    <glyph glyph-name="edotaccent" unicode="&#x117;" horiz-adv-x="1077" vert-adv-y="2458" 
d="M264 477q17 -174 80 -259q86 -113 254 -113q143 0 284 98l60 -121q-162 -102 -347 -102q-246 0 -379 161q-116 141 -116 378q0 287 155 431q116 108 297 108q277 0 372 -227q53 -128 57 -354h-717zM815 602q-3 115 -40 192q-67 139 -228 139q-154 0 -231 -137
q-44 -79 -48 -194h547zM568 1454q52 0 82 -38q23 -28 23 -69q0 -40 -23 -68q-30 -38 -83 -38q-55 0 -84 39q-23 29 -23 70q0 40 23 67q30 37 85 37z" />
    <glyph glyph-name="Eogonek" unicode="&#x118;" horiz-adv-x="1083" vert-adv-y="2458" 
d="M184 0v1417h748v-135h-584v-496h555v-135h-555v-516h614v-135q-11 -7 -22 -15q-96 -62 -132 -97q-69 -65 -69 -133q0 -44 31 -69q31 -24 76 -24q35 0 100 16l16 -98q-92 -26 -150 -26q-88 0 -145 42q-65 48 -65 130q0 123 134 211q41 28 128 63h-680z" />
    <glyph glyph-name="eogonek" unicode="&#x119;" horiz-adv-x="1077" vert-adv-y="2458" 
d="M674 -16q-70 -44 -105 -74q-94 -78 -94 -155q0 -44 31 -69q31 -24 77 -24q34 0 99 16l17 -98q-94 -26 -150 -26q-89 0 -146 42q-65 48 -65 130q0 156 216 255q-156 10 -264 89q-190 140 -190 448q0 288 155 432q116 108 297 108q277 0 372 -227q53 -128 57 -354h-717
q16 -174 80 -259q86 -114 254 -114q144 0 284 99l60 -121q-119 -80 -268 -98zM815 602q-3 115 -40 192q-67 139 -228 139q-154 0 -231 -137q-44 -79 -48 -194h547z" />
    <glyph glyph-name="Ecaron" unicode="&#x11a;" horiz-adv-x="1083" vert-adv-y="2458" 
d="M184 0v1417h748v-135h-584v-496h555v-135h-555v-516h614v-135h-778zM562 1657l150 201h149l-205 -299h-188l-205 299h150z" />
    <glyph glyph-name="ecaron" unicode="&#x11b;" horiz-adv-x="1077" vert-adv-y="2458" 
d="M264 477q17 -174 80 -259q86 -113 254 -113q143 0 284 98l60 -121q-162 -102 -347 -102q-246 0 -379 161q-116 141 -116 378q0 287 155 431q116 108 297 108q277 0 372 -227q53 -128 57 -354h-717zM815 602q-3 115 -40 192q-67 139 -228 139q-154 0 -231 -137
q-44 -79 -48 -194h547zM555 1296l150 201h149l-205 -299h-188l-205 299h150z" />
    <glyph glyph-name="Gcircumflex" unicode="&#x11c;" horiz-adv-x="1378" vert-adv-y="2458" 
d="M1207 731v-670q-94 -36 -212 -58.5t-219 -22.5q-286 0 -465 178q-200 198 -200 532q0 349 201 557q183 190 470 190q199 0 415 -100l-48 -131q-187 96 -372 96q-240 0 -369 -181q-123 -174 -123 -429q0 -291 168 -452q131 -125 339 -125q123 0 251 45v436h-279v135h443z
M772 1747l-149 -201h-150l205 299h188l205 -299h-149z" />
    <glyph glyph-name="gcircumflex" unicode="&#x11d;" horiz-adv-x="1153" vert-adv-y="2458" 
d="M830 1038h152q-8 -240 -8 -409v-519q0 -175 -21 -267q-34 -146 -164 -232q-109 -72 -262 -72q-207 0 -392 113l67 120q157 -108 322 -108q183 0 254 148q40 83 40 284v86q-145 -164 -317 -164q-174 0 -289 140q-113 137 -113 372q0 254 125 402q107 126 280 126
q205 0 320 -180zM818 733q-42 80 -94 125q-87 75 -187 75q-139 0 -211 -126q-63 -111 -63 -275q0 -159 66 -267q76 -122 214 -122q167 0 275 182v408zM576 1399l-149 -201h-150l205 299h188l205 -299h-149z" />
    <glyph glyph-name="Gbreve" unicode="&#x11e;" horiz-adv-x="1378" vert-adv-y="2458" 
d="M1207 731v-670q-94 -36 -212 -58.5t-219 -22.5q-286 0 -465 178q-200 198 -200 532q0 349 201 557q183 190 470 190q199 0 415 -100l-48 -131q-187 96 -372 96q-240 0 -369 -181q-123 -174 -123 -429q0 -291 168 -452q131 -125 339 -125q123 0 251 45v436h-279v135h443z
M458 1845h135q15 -193 166 -193q150 0 165 193h135q-5 -109 -47 -176q-79 -128 -253 -128q-175 0 -254 128q-42 67 -47 176z" />
    <glyph glyph-name="gbreve" unicode="&#x11f;" horiz-adv-x="1153" vert-adv-y="2458" 
d="M830 1038h152q-8 -240 -8 -409v-519q0 -175 -21 -267q-34 -146 -164 -232q-109 -72 -262 -72q-207 0 -392 113l67 120q157 -108 322 -108q183 0 254 148q40 83 40 284v86q-145 -164 -317 -164q-174 0 -289 140q-113 137 -113 372q0 254 125 402q107 126 280 126
q205 0 320 -180zM818 733q-42 80 -94 125q-87 75 -187 75q-139 0 -211 -126q-63 -111 -63 -275q0 -159 66 -267q76 -122 214 -122q167 0 275 182v408zM276 1497h135q6 -83 40 -130q45 -63 126 -63q87 0 133 74q26 44 32 119h135q-6 -113 -51 -181q-82 -123 -249 -123
q-168 0 -250 123q-45 68 -51 181z" />
    <glyph glyph-name="Gdotaccent" unicode="&#x120;" horiz-adv-x="1378" vert-adv-y="2458" 
d="M1207 731v-670q-94 -36 -212 -58.5t-219 -22.5q-286 0 -465 178q-200 198 -200 532q0 349 201 557q183 190 470 190q199 0 415 -100l-48 -131q-187 96 -372 96q-240 0 -369 -181q-123 -174 -123 -429q0 -291 168 -452q131 -125 339 -125q123 0 251 45v436h-279v135h443z
M774 1802q52 0 82 -38q23 -28 23 -69q0 -40 -23 -68q-29 -38 -83 -38q-55 0 -84 39q-23 29 -23 70q0 40 23 67q30 37 85 37z" />
    <glyph glyph-name="gdotaccent" unicode="&#x121;" horiz-adv-x="1153" vert-adv-y="2458" 
d="M830 1038h152q-8 -240 -8 -409v-519q0 -175 -21 -267q-34 -146 -164 -232q-109 -72 -262 -72q-207 0 -392 113l67 120q157 -108 322 -108q183 0 254 148q40 83 40 284v86q-145 -164 -317 -164q-174 0 -289 140q-113 137 -113 372q0 254 125 402q107 126 280 126
q205 0 320 -180zM818 733q-42 80 -94 125q-87 75 -187 75q-139 0 -211 -126q-63 -111 -63 -275q0 -159 66 -267q76 -122 214 -122q167 0 275 182v408zM578 1454q52 0 82 -38q23 -28 23 -69q0 -40 -23 -68q-30 -38 -83 -38q-55 0 -84 39q-23 29 -23 70q0 40 23 67
q30 37 85 37z" />
    <glyph glyph-name="Gcommaaccent" unicode="&#x122;" horiz-adv-x="1378" vert-adv-y="2458" 
d="M1207 731v-670q-94 -36 -212 -58.5t-219 -22.5q-286 0 -465 178q-200 198 -200 532q0 349 201 557q183 190 470 190q199 0 415 -100l-48 -131q-187 96 -372 96q-240 0 -369 -181q-123 -174 -123 -429q0 -291 168 -452q131 -125 339 -125q123 0 251 45v436h-279v135h443z
M716 -70h186l-276 -301h-152z" />
    <glyph glyph-name="gcommaaccent" unicode="&#x123;" horiz-adv-x="1153" vert-adv-y="2458" 
d="M830 1038h152q-8 -240 -8 -409v-519q0 -175 -21 -267q-34 -146 -164 -232q-109 -72 -262 -72q-207 0 -392 113l67 120q157 -108 322 -108q183 0 254 148q40 83 40 284v86q-145 -164 -317 -164q-174 0 -289 140q-113 137 -113 372q0 254 125 402q107 126 280 126
q205 0 320 -180zM818 733q-42 80 -94 125q-87 75 -187 75q-139 0 -211 -126q-63 -111 -63 -275q0 -159 66 -267q76 -122 214 -122q167 0 275 182v408zM600 1196h-186l276 301h152z" />
    <glyph glyph-name="Hcircumflex" unicode="&#x124;" horiz-adv-x="1378" vert-adv-y="2458" 
d="M184 0v1417h164v-624h682v624h164v-1417h-164v658h-682v-658h-164zM689 1747l-149 -201h-150l205 299h188l205 -299h-149z" />
    <glyph glyph-name="Hbar" unicode="&#x126;" horiz-adv-x="1378" vert-adv-y="2458" 
d="M184 0v1417h164v-624h682v624h164v-1417h-164v658h-682v-658h-164zM391 1602v119h595v-119h-595z" />
    <glyph glyph-name="hbar" unicode="&#x127;" horiz-adv-x="1190" vert-adv-y="2458" 
d="M178 0v1192h-190v119h190v186h156v-186h297v-119h-297v-315q55 58 107 95q119 86 266 86q197 0 270 -144q32 -64 39 -180q4 -70 4 -134v-600h-156v603q0 156 -22 219q-39 111 -179 111q-169 0 -329 -194v-739h-156z" />
    <glyph glyph-name="Imacron" unicode="&#x12a;" horiz-adv-x="532" vert-adv-y="2458" 
d="M185 0v1417h164v-1417h-164zM-31 1602v119h595v-119h-595z" />
    <glyph glyph-name="imacron" unicode="&#x12b;" horiz-adv-x="512" vert-adv-y="2458" 
d="M178 0v1038h156v-1038h-156zM-42 1282v119h595v-119h-595z" />
    <glyph glyph-name="ibreve" unicode="&#x12d;" horiz-adv-x="512" vert-adv-y="2458" 
d="M178 0v1038h156v-1038h-156zM-45 1497h135q6 -83 40 -130q45 -63 126 -63q87 0 133 74q26 44 32 119h135q-6 -113 -51 -181q-82 -123 -249 -123q-168 0 -250 123q-45 68 -51 181z" />
    <glyph glyph-name="Iogonek" unicode="&#x12e;" horiz-adv-x="532" vert-adv-y="2458" 
d="M184 0v1417h164v-1417q-99 -63 -130 -89q-94 -79 -94 -156q0 -44 31 -69q31 -24 77 -24q34 0 99 16l17 -98q-95 -26 -150 -26q-89 0 -146 42q-65 48 -65 130q0 123 134 211q41 27 128 63h-65z" />
    <glyph glyph-name="iogonek" unicode="&#x12f;" horiz-adv-x="512" vert-adv-y="2458" 
d="M178 0v1038h156v-1038q-97 -62 -130 -89q-94 -79 -94 -156q0 -44 31 -69q31 -24 77 -24q34 0 99 16l17 -98q-95 -26 -150 -26q-89 0 -146 42q-65 48 -65 130q0 123 134 211q41 27 128 63h-57zM257 1517q57 0 88 -43q21 -29 21 -68q0 -38 -21 -67q-31 -43 -90 -43
q-58 0 -89 43q-21 29 -21 67q0 39 21 68q31 43 91 43z" />
    <glyph glyph-name="Idotaccent" unicode="&#x130;" horiz-adv-x="532" vert-adv-y="2458" 
d="M185 0v1417h164v-1417h-164zM268 1802q52 0 82 -38q23 -28 23 -69q0 -40 -23 -68q-29 -38 -83 -38q-55 0 -84 39q-23 29 -23 70q0 40 23 67q30 37 85 37z" />
    <glyph glyph-name="Jcircumflex" unicode="&#x134;" horiz-adv-x="741" vert-adv-y="2458" 
d="M406 1417h164v-954q0 -161 -16 -234q-52 -249 -344 -249q-115 0 -222 40l14 136q91 -41 193 -41q148 0 185 100q26 69 26 319v883zM474 1747l-149 -201h-150l205 299h188l205 -299h-149z" />
    <glyph glyph-name="jcircumflex" unicode="&#x135;" horiz-adv-x="512" vert-adv-y="2458" 
d="M178 1038h156v-1059q0 -139 -7 -204q-14 -123 -100 -185q-72 -51 -185 -51q-59 0 -119 13l17 130q48 -12 86 -12q85 0 122 55q30 43 30 141v1172zM256 1399l-149 -201h-150l205 299h188l205 -299h-149z" />
    <glyph glyph-name="Kcommaaccent" unicode="&#x136;" horiz-adv-x="1187" vert-adv-y="2458" 
d="M184 0v1417h164v-677l601 677h196l-597 -676l624 -741h-211l-613 731v-731h-164zM599 -70h186l-276 -301h-152z" />
    <glyph glyph-name="kcommaaccent" unicode="&#x137;" horiz-adv-x="999" vert-adv-y="2458" 
d="M178 0v1497h156v-899l422 440h195l-453 -461l483 -577h-200l-447 536v-536h-156zM496 -70h186l-276 -301h-152z" />
    <glyph glyph-name="Lacute" unicode="&#x139;" horiz-adv-x="971" vert-adv-y="2458" 
d="M184 0v1417h164v-1282h614v-135h-778zM466 1845h199l-299 -299h-150z" />
    <glyph glyph-name="lacute" unicode="&#x13a;" horiz-adv-x="512" vert-adv-y="2458" 
d="M178 0v1497h156v-1497h-156zM389 1845h199l-299 -299h-150z" />
    <glyph glyph-name="Lcommaaccent" unicode="&#x13b;" horiz-adv-x="971" vert-adv-y="2458" 
d="M184 0v1417h164v-1282h614v-135h-778zM525 -70h186l-276 -301h-152z" />
    <glyph glyph-name="lcommaaccent" unicode="&#x13c;" horiz-adv-x="512" vert-adv-y="2458" 
d="M178 0v1497h156v-1497h-156zM191 -70h186l-276 -301h-152z" />
    <glyph glyph-name="Lcaron" unicode="&#x13d;" horiz-adv-x="971" vert-adv-y="2458" 
d="M184 0v1417h164v-1282h614v-135h-778zM659 1497h182l-182 -459h-142z" />
    <glyph glyph-name="lcaron" unicode="&#x13e;" horiz-adv-x="694" vert-adv-y="2458" 
d="M178 0v1497h156v-1497h-156zM611 1497h182l-182 -459h-142z" />
    <glyph glyph-name="Lslash" unicode="&#x141;" horiz-adv-x="997" vert-adv-y="2458" 
d="M211 0v648l-170 -128v125l170 128v644h164v-520l212 159v-125l-212 -159v-637h614v-135h-778z" />
    <glyph glyph-name="lslash" unicode="&#x142;" horiz-adv-x="557" vert-adv-y="2458" 
d="M201 0v683l-170 -133v125l170 133v689h156v-568l169 132v-125l-169 -132v-804h-156z" />
    <glyph glyph-name="Nacute" unicode="&#x143;" horiz-adv-x="1413" vert-adv-y="2458" 
d="M184 0v1417h189l545 -902q60 -100 129 -228l29 -54q-4 90 -4 210v974h156v-1417h-191l-550 911q-78 129 -151 271q4 -105 4 -267v-915h-156zM874 1845h199l-299 -299h-150z" />
    <glyph glyph-name="nacute" unicode="&#x144;" horiz-adv-x="1190" vert-adv-y="2458" 
d="M178 0v700q-1 254 -8 338h154l6 -166q59 62 111 100q118 86 266 86q197 0 270 -144q32 -64 39 -180q4 -70 4 -134v-600h-156v603q0 156 -22 219q-39 111 -179 111q-169 0 -329 -194v-739h-156zM769 1497h199l-299 -299h-150z" />
    <glyph glyph-name="Ncommaaccent" unicode="&#x145;" horiz-adv-x="1413" vert-adv-y="2458" 
d="M184 0v1417h189l545 -902q60 -100 129 -228l29 -54q-4 90 -4 210v974h156v-1417h-191l-550 911q-78 129 -151 271q4 -105 4 -267v-915h-156zM671 -70h186l-276 -301h-152z" />
    <glyph glyph-name="ncommaaccent" unicode="&#x146;" horiz-adv-x="1190" vert-adv-y="2458" 
d="M178 0v700q-1 254 -8 338h154l6 -166q59 62 111 100q118 86 266 86q197 0 270 -144q32 -64 39 -180q4 -70 4 -134v-600h-156v603q0 156 -22 219q-39 111 -179 111q-169 0 -329 -194v-739h-156zM564 -70h186l-276 -301h-152z" />
    <glyph glyph-name="Ncaron" unicode="&#x147;" horiz-adv-x="1413" vert-adv-y="2458" 
d="M184 0v1417h189l545 -902q60 -100 129 -228l29 -54q-4 90 -4 210v974h156v-1417h-191l-550 911q-78 129 -151 271q4 -105 4 -267v-915h-156zM748 1657l150 201h149l-205 -299h-188l-205 299h150z" />
    <glyph glyph-name="ncaron" unicode="&#x148;" horiz-adv-x="1190" vert-adv-y="2458" 
d="M178 0v700q-1 254 -8 338h154l6 -166q59 62 111 100q118 86 266 86q197 0 270 -144q32 -64 39 -180q4 -70 4 -134v-600h-156v603q0 156 -22 219q-39 111 -179 111q-169 0 -329 -194v-739h-156zM643 1296l150 201h149l-205 -299h-188l-205 299h150z" />
    <glyph glyph-name="Omacron" unicode="&#x14c;" horiz-adv-x="1475" vert-adv-y="2458" 
d="M745 1437q294 0 458 -217q161 -213 161 -511q0 -198 -74 -363q-163 -366 -552 -366q-301 0 -466 217q-161 212 -161 512q0 196 74 362q163 366 560 366zM732 1302q-214 0 -337 -176q-110 -158 -110 -418q0 -284 131 -445q122 -148 322 -148q218 0 341 176
q111 157 111 418q0 285 -131 445q-122 148 -327 148zM440 1602v119h595v-119h-595z" />
    <glyph glyph-name="omacron" unicode="&#x14d;" horiz-adv-x="1157" vert-adv-y="2458" 
d="M584 1058q221 0 357 -171q115 -144 115 -368q0 -241 -133 -389q-135 -150 -345 -150q-227 0 -363 171q-115 145 -115 369q0 242 133 389q134 149 351 149zM574 933q-96 0 -172 -59q-138 -108 -138 -355q0 -171 72 -282q86 -132 242 -132q169 0 254 153q60 106 60 262
q0 171 -72 281q-86 132 -246 132zM281 1282v119h595v-119h-595z" />
    <glyph glyph-name="Ohungarumlaut" unicode="&#x150;" horiz-adv-x="1475" vert-adv-y="2458" 
d="M745 1437q294 0 458 -217q161 -213 161 -511q0 -198 -74 -363q-163 -366 -552 -366q-301 0 -466 217q-161 212 -161 512q0 196 74 362q163 366 560 366zM732 1302q-214 0 -337 -176q-110 -158 -110 -418q0 -284 131 -445q122 -148 322 -148q218 0 341 176
q111 157 111 418q0 285 -131 445q-122 148 -327 148zM692 1845h190l-258 -299h-141zM1012 1845h190l-258 -299h-141z" />
    <glyph glyph-name="ohungarumlaut" unicode="&#x151;" horiz-adv-x="1157" vert-adv-y="2458" 
d="M584 1058q221 0 357 -171q115 -144 115 -368q0 -241 -133 -389q-135 -150 -345 -150q-227 0 -363 171q-115 145 -115 369q0 242 133 389q134 149 351 149zM574 933q-96 0 -172 -59q-138 -108 -138 -355q0 -171 72 -282q86 -132 242 -132q169 0 254 153q60 106 60 262
q0 171 -72 281q-86 132 -246 132zM533 1497h190l-258 -299h-141zM853 1497h190l-258 -299h-141z" />
    <glyph glyph-name="Racute" unicode="&#x154;" horiz-adv-x="1102" vert-adv-y="2458" 
d="M184 0v1417h302q225 0 333 -64q166 -99 166 -308q0 -175 -121 -276q-68 -56 -180 -81q93 -28 133 -87q29 -41 82 -171l174 -430h-174l-150 355q-43 101 -73 154q-52 90 -135 108q-52 12 -145 12h-48v-629h-164zM348 764h76q167 0 253 40q134 62 134 225q0 154 -115 213
q-77 40 -248 40h-100v-518zM697 1845h199l-299 -299h-150z" />
    <glyph glyph-name="racute" unicode="&#x155;" horiz-adv-x="719" vert-adv-y="2458" 
d="M180 0v592q0 204 -6 398l-1 48h145l6 -191q52 96 112 148q72 63 180 63q32 0 72 -7l-14 -140q-28 6 -54 6q-116 0 -204 -115q-49 -66 -80 -145v-657h-156zM534 1497h199l-299 -299h-150z" />
    <glyph glyph-name="Rcommaaccent" unicode="&#x156;" horiz-adv-x="1102" vert-adv-y="2458" 
d="M184 0v1417h302q225 0 333 -64q166 -99 166 -308q0 -175 -121 -276q-68 -56 -180 -81q93 -28 133 -87q29 -41 82 -171l174 -430h-174l-150 355q-43 101 -73 154q-52 90 -135 108q-52 12 -145 12h-48v-629h-164zM348 764h76q167 0 253 40q134 62 134 225q0 154 -115 213
q-77 40 -248 40h-100v-518zM556 -70h186l-276 -301h-152z" />
    <glyph glyph-name="rcommaaccent" unicode="&#x157;" horiz-adv-x="719" vert-adv-y="2458" 
d="M181 0v592q0 204 -6 398l-1 48h145l6 -191q52 96 112 148q72 63 180 63q32 0 72 -7l-14 -140q-28 6 -54 6q-116 0 -204 -115q-49 -66 -80 -145v-657h-156zM212 -70h186l-276 -301h-152z" />
    <glyph glyph-name="Rcaron" unicode="&#x158;" horiz-adv-x="1102" vert-adv-y="2458" 
d="M184 0v1417h302q225 0 333 -64q166 -99 166 -308q0 -175 -121 -276q-68 -56 -180 -81q93 -28 133 -87q29 -41 82 -171l174 -430h-174l-150 355q-43 101 -73 154q-52 90 -135 108q-52 12 -145 12h-48v-629h-164zM348 764h76q167 0 253 40q134 62 134 225q0 154 -115 213
q-77 40 -248 40h-100v-518zM551 1657l150 201h149l-205 -299h-188l-205 299h150z" />
    <glyph glyph-name="rcaron" unicode="&#x159;" horiz-adv-x="719" vert-adv-y="2458" 
d="M181 0v592q0 204 -6 398l-1 48h145l6 -191q52 96 112 148q72 63 180 63q32 0 72 -7l-14 -140q-28 6 -54 6q-116 0 -204 -115q-49 -66 -80 -145v-657h-156zM415 1296l150 201h149l-205 -299h-188l-205 299h150z" />
    <glyph glyph-name="Sacute" unicode="&#x15a;" horiz-adv-x="1065" vert-adv-y="2458" 
d="M125 43l21 143q194 -71 345 -71q136 0 215 72q75 68 75 180q0 105 -63 163q-52 50 -226 127q-155 69 -207 101q-102 64 -142 146q-32 65 -32 150q0 178 121 280q121 103 323 103q142 0 334 -63l-33 -147q-157 75 -303 75q-112 0 -189 -58q-79 -59 -79 -160q0 -81 52 -138
q40 -44 93 -71q54 -29 128 -60q151 -63 213 -104q184 -121 184 -330q0 -189 -133 -298q-127 -103 -336 -103q-163 0 -361 63zM673 1845h199l-299 -299h-150z" />
    <glyph glyph-name="sacute" unicode="&#x15b;" horiz-adv-x="862" vert-adv-y="2458" 
d="M100 51l47 123q143 -69 252 -69q79 0 137 43q62 46 62 132q0 69 -41 105q-35 31 -167 81q-105 41 -148 69q-138 87 -138 233q0 137 107 220q91 70 234 70q146 0 296 -77l-47 -123q-112 75 -235 75q-80 0 -131 -34q-60 -39 -60 -118q0 -72 59 -114q43 -30 153 -74
q122 -49 167 -81q115 -79 115 -221q0 -150 -113 -235q-100 -76 -252 -76q-147 0 -297 71zM543 1497h199l-299 -299h-150z" />
    <glyph glyph-name="Scircumflex" unicode="&#x15c;" horiz-adv-x="1065" vert-adv-y="2458" 
d="M125 43l21 143q194 -71 345 -71q136 0 215 72q75 68 75 180q0 105 -63 163q-52 50 -226 127q-155 69 -207 101q-102 64 -142 146q-32 65 -32 150q0 178 121 280q121 103 323 103q142 0 334 -63l-33 -147q-157 75 -303 75q-112 0 -189 -58q-79 -59 -79 -160q0 -81 52 -138
q40 -44 93 -71q54 -29 128 -60q151 -63 213 -104q184 -121 184 -330q0 -189 -133 -298q-127 -103 -336 -103q-163 0 -361 63zM547 1747l-149 -201h-150l205 299h188l205 -299h-149z" />
    <glyph glyph-name="scircumflex" unicode="&#x15d;" horiz-adv-x="862" vert-adv-y="2458" 
d="M100 51l47 123q143 -69 252 -69q79 0 137 43q62 46 62 132q0 69 -41 105q-35 31 -167 81q-105 41 -148 69q-138 87 -138 233q0 137 107 220q91 70 234 70q146 0 296 -77l-47 -123q-112 75 -235 75q-80 0 -131 -34q-60 -39 -60 -118q0 -72 59 -114q43 -30 153 -74
q122 -49 167 -81q115 -79 115 -221q0 -150 -113 -235q-100 -76 -252 -76q-147 0 -297 71zM451 1399l-149 -201h-150l205 299h188l205 -299h-149z" />
    <glyph glyph-name="Scedilla" unicode="&#x15e;" horiz-adv-x="1065" vert-adv-y="2458" 
d="M125 43l21 143q194 -71 345 -71q136 0 215 72q75 68 75 180q0 105 -63 163q-52 50 -226 127q-155 69 -207 101q-102 64 -142 146q-32 65 -32 150q0 178 121 280q121 103 323 103q142 0 334 -63l-33 -147q-157 75 -303 75q-112 0 -189 -58q-79 -59 -79 -160q0 -81 52 -138
q40 -44 93 -71q54 -29 128 -60q151 -63 213 -104q184 -121 184 -330q0 -189 -133 -298q-127 -103 -336 -103q-163 0 -361 63zM456 -70h186l-276 -301h-152z" />
    <glyph glyph-name="scedilla" unicode="&#x15f;" horiz-adv-x="862" vert-adv-y="2458" 
d="M100 51l47 123q143 -69 252 -69q79 0 137 43q62 46 62 132q0 69 -41 105q-35 31 -167 81q-105 41 -148 69q-138 87 -138 233q0 137 107 220q91 70 234 70q146 0 296 -77l-47 -123q-112 75 -235 75q-80 0 -131 -34q-60 -39 -60 -118q0 -72 59 -114q43 -30 153 -74
q122 -49 167 -81q115 -79 115 -221q0 -150 -113 -235q-100 -76 -252 -76q-147 0 -297 71zM359 -70h186l-276 -301h-152z" />
    <glyph glyph-name="Scaron" unicode="&#x160;" horiz-adv-x="1065" vert-adv-y="2458" 
d="M125 43l21 143q194 -71 345 -71q136 0 215 72q75 68 75 180q0 105 -63 163q-52 50 -226 127q-155 69 -207 101q-102 64 -142 146q-32 65 -32 150q0 178 121 280q121 103 323 103q142 0 334 -63l-33 -147q-157 75 -303 75q-112 0 -189 -58q-79 -59 -79 -160q0 -81 52 -138
q40 -44 93 -71q54 -29 128 -60q151 -63 213 -104q184 -121 184 -330q0 -189 -133 -298q-127 -103 -336 -103q-163 0 -361 63zM560 1657l150 201h149l-205 -299h-188l-205 299h150z" />
    <glyph glyph-name="scaron" unicode="&#x161;" horiz-adv-x="862" vert-adv-y="2458" 
d="M100 51l47 123q143 -69 252 -69q79 0 137 43q62 46 62 132q0 69 -41 105q-35 31 -167 81q-105 41 -148 69q-138 87 -138 233q0 137 107 220q91 70 234 70q146 0 296 -77l-47 -123q-112 75 -235 75q-80 0 -131 -34q-60 -39 -60 -118q0 -72 59 -114q43 -30 153 -74
q122 -49 167 -81q115 -79 115 -221q0 -150 -113 -235q-100 -76 -252 -76q-147 0 -297 71zM451 1296l150 201h149l-205 -299h-188l-205 299h150z" />
    <glyph glyph-name="Tcommaaccent" unicode="&#x162;" horiz-adv-x="1055" vert-adv-y="2458" 
d="M443 0v1282h-414v135h997v-135h-419v-1282h-164zM479 -70h186l-276 -301h-152z" />
    <glyph glyph-name="tcommaaccent" unicode="&#x163;" horiz-adv-x="704" vert-adv-y="2458" 
d="M234 913h-168v125h168v227l156 33v-260h245v-125h-245v-567q0 -129 22 -176q32 -65 118 -65q52 0 119 31l14 -124q-90 -32 -168 -32q-156 0 -216 96q-45 71 -45 239v598zM370 -70h186l-276 -301h-152z" />
    <glyph glyph-name="Tcaron" unicode="&#x164;" horiz-adv-x="1055" vert-adv-y="2458" 
d="M443 0v1282h-414v135h997v-135h-419v-1282h-164zM528 1657l150 201h149l-205 -299h-188l-205 299h150z" />
    <glyph glyph-name="tcaron" unicode="&#x165;" horiz-adv-x="886" vert-adv-y="2458" 
d="M234 913h-168v125h168v227l156 33v-260h245v-125h-245v-567q0 -129 22 -176q32 -65 118 -65q52 0 119 31l14 -124q-90 -32 -168 -32q-156 0 -216 96q-45 71 -45 239v598zM825 1590h182l-182 -459h-142z" />
    <glyph glyph-name="Umacron" unicode="&#x16a;" horiz-adv-x="1362" vert-adv-y="2458" 
d="M172 1417h164v-860q0 -138 18 -210q36 -143 141 -196q72 -36 185 -36q207 0 289 122q65 97 65 289v891h156v-792q0 -236 -17 -314q-36 -170 -184 -259q-121 -72 -309 -72q-319 0 -443 204q-54 88 -61 247q-4 78 -4 194v792zM383 1602v119h595v-119h-595z" />
    <glyph glyph-name="umacron" unicode="&#x16b;" horiz-adv-x="1178" vert-adv-y="2458" 
d="M999 1038v-700q1 -260 8 -338h-154l-6 166q-55 -59 -109 -98q-123 -88 -260 -88q-193 0 -265 144q-32 65 -39 180q-4 67 -4 134v600h156v-603q0 -157 22 -219q38 -111 173 -111q165 0 322 194v739h156zM291 1282v119h595v-119h-595z" />
    <glyph glyph-name="ubreve" unicode="&#x16d;" horiz-adv-x="1178" vert-adv-y="2458" 
d="M999 1038v-700q1 -260 8 -338h-154l-6 166q-55 -59 -109 -98q-123 -88 -260 -88q-193 0 -265 144q-32 65 -39 180q-4 67 -4 134v600h156v-603q0 -157 22 -219q38 -111 173 -111q165 0 322 194v739h156zM288 1497h135q6 -83 40 -130q45 -63 126 -63q87 0 133 74
q26 44 32 119h135q-6 -113 -51 -181q-82 -123 -249 -123q-168 0 -250 123q-45 68 -51 181z" />
    <glyph glyph-name="Uring" unicode="&#x16e;" horiz-adv-x="1362" vert-adv-y="2458" 
d="M172 1417h164v-860q0 -138 18 -210q36 -143 141 -196q72 -36 185 -36q207 0 289 122q65 97 65 289v891h156v-792q0 -236 -17 -314q-36 -170 -184 -259q-121 -72 -309 -72q-319 0 -443 204q-54 88 -61 247q-4 78 -4 194v792zM688 1802q82 0 141 -58q60 -59 60 -147
t-60 -147q-59 -58 -144 -58t-144 58q-60 59 -60 147q0 90 60 147q61 58 147 58zM683 1720q-56 0 -89 -42q-27 -35 -27 -81t27 -81q33 -42 91 -42t91 42q27 35 27 81t-27 81q-33 42 -93 42z" />
    <glyph glyph-name="uring" unicode="&#x16f;" horiz-adv-x="1178" vert-adv-y="2458" 
d="M999 1038v-700q1 -260 8 -338h-154l-6 166q-55 -59 -109 -98q-123 -88 -260 -88q-193 0 -265 144q-32 65 -39 180q-4 67 -4 134v600h156v-603q0 -157 22 -219q38 -111 173 -111q165 0 322 194v739h156zM592 1567q82 0 141 -58q60 -59 60 -147t-60 -147q-59 -58 -144 -58
t-144 58q-60 59 -60 147q0 90 60 147q61 58 147 58zM587 1485q-56 0 -89 -42q-27 -35 -27 -81t27 -81q33 -42 91 -42t91 42q27 35 27 81t-27 81q-33 42 -93 42z" />
    <glyph glyph-name="Uhungarumlaut" unicode="&#x170;" horiz-adv-x="1362" vert-adv-y="2458" 
d="M172 1417h164v-860q0 -138 18 -210q36 -143 141 -196q72 -36 185 -36q207 0 289 122q65 97 65 289v891h156v-792q0 -236 -17 -314q-36 -170 -184 -259q-121 -72 -309 -72q-319 0 -443 204q-54 88 -61 247q-4 78 -4 194v792zM635 1845h190l-258 -299h-141zM955 1845h190
l-258 -299h-141z" />
    <glyph glyph-name="uhungarumlaut" unicode="&#x171;" horiz-adv-x="1178" vert-adv-y="2458" 
d="M999 1038v-700q1 -260 8 -338h-154l-6 166q-55 -59 -109 -98q-123 -88 -260 -88q-193 0 -265 144q-32 65 -39 180q-4 67 -4 134v600h156v-603q0 -157 22 -219q38 -111 173 -111q165 0 322 194v739h156zM543 1497h190l-258 -299h-141zM863 1497h190l-258 -299h-141z" />
    <glyph glyph-name="Uogonek" unicode="&#x172;" horiz-adv-x="1362" vert-adv-y="2458" 
d="M835 -7q-91 -59 -119 -83q-94 -78 -94 -155q0 -44 31 -69q31 -24 76 -24q34 0 100 16l16 -98q-95 -26 -150 -26q-88 0 -145 42q-65 48 -65 130q0 156 213 253q-271 -5 -413 142q-90 94 -105 245q-8 86 -8 258v793h164v-860q0 -139 18 -211q36 -143 141 -196
q72 -36 185 -36q207 0 289 122q65 97 65 290v891h156v-793q0 -243 -17 -313q-36 -169 -184 -259q-72 -43 -154 -59z" />
    <glyph glyph-name="uogonek" unicode="&#x173;" horiz-adv-x="1178" vert-adv-y="2458" 
d="M853 0l-6 166q-55 -59 -109 -98q-123 -88 -260 -88q-193 0 -265 144q-32 65 -39 180q-4 67 -4 134v600h156v-603q0 -157 22 -219q38 -111 173 -111q165 0 322 194v739h156v-700q1 -260 8 -338q-99 -63 -131 -89q-94 -79 -94 -155q0 -45 31 -70q31 -24 77 -24q34 0 101 16
l16 -98q-95 -26 -151 -26q-88 0 -145 42q-65 48 -65 130q0 121 131 209q41 28 131 65h-55z" />
    <glyph glyph-name="Wcircumflex" unicode="&#x174;" horiz-adv-x="1759" vert-adv-y="2458" 
d="M387 0l-317 1417h172l203 -959q34 -161 57 -303q22 133 62 306l215 956h206l219 -950q37 -161 62 -302q19 117 58 298l208 954h158l-320 -1417h-210l-218 947q-39 172 -63 307q-24 -135 -63 -309l-218 -945h-211zM880 1747l-149 -201h-150l205 299h188l205 -299h-149z
" />
    <glyph glyph-name="Ycircumflex" unicode="&#x176;" horiz-adv-x="1147" vert-adv-y="2458" 
d="M492 0v638l-496 779h193l295 -471q57 -91 97 -166q60 108 99 171l291 466h180l-495 -779v-638h-164zM581 1747l-149 -201h-150l205 299h188l205 -299h-149z" />
    <glyph glyph-name="ycircumflex" unicode="&#x177;" horiz-adv-x="1001" vert-adv-y="2458" 
d="M433 -15l-409 1053h167l237 -621q42 -111 85 -237q41 121 87 244l230 614h146l-422 -1126q-66 -175 -141 -270q-82 -103 -239 -103q-73 0 -153 20l27 127q63 -22 116 -22q85 0 136 52q75 76 133 269zM500 1399l-149 -201h-150l205 299h188l205 -299h-149z" />
    <glyph glyph-name="Zacute" unicode="&#x179;" horiz-adv-x="1115" vert-adv-y="2458" 
d="M80 0v135l742 1147h-718v135h905v-135l-739 -1147h760v-135h-950zM691 1845h199l-299 -299h-150z" />
    <glyph glyph-name="zacute" unicode="&#x17a;" horiz-adv-x="909" vert-adv-y="2458" 
d="M70 0v117l564 796h-537v125h723v-125l-561 -788h577v-125h-766zM588 1497h199l-299 -299h-150z" />
    <glyph glyph-name="Zdotaccent" unicode="&#x17b;" horiz-adv-x="1115" vert-adv-y="2458" 
d="M80 0v135l742 1147h-718v135h905v-135l-739 -1147h760v-135h-950zM580 1802q52 0 82 -38q23 -28 23 -69q0 -40 -23 -68q-29 -38 -83 -38q-55 0 -84 39q-23 29 -23 70q0 40 23 67q30 37 85 37z" />
    <glyph glyph-name="zdotaccent" unicode="&#x17c;" horiz-adv-x="909" vert-adv-y="2458" 
d="M70 0v117l564 796h-537v125h723v-125l-561 -788h577v-125h-766zM491 1454q52 0 82 -38q23 -28 23 -69q0 -40 -23 -68q-30 -38 -83 -38q-55 0 -84 39q-23 29 -23 70q0 40 23 67q30 37 85 37z" />
    <glyph glyph-name="Zcaron" unicode="&#x17d;" horiz-adv-x="1115" vert-adv-y="2458" 
d="M80 0v135l742 1147h-718v135h905v-135l-739 -1147h760v-135h-950zM579 1657l150 201h149l-205 -299h-188l-205 299h150z" />
    <glyph glyph-name="zcaron" unicode="&#x17e;" horiz-adv-x="909" vert-adv-y="2458" 
d="M70 0v117l564 796h-537v125h723v-125l-561 -788h577v-125h-766zM476 1296l150 201h149l-205 -299h-188l-205 299h150z" />
    <glyph glyph-name="uni01CD" unicode="&#x1cd;" horiz-adv-x="1276" vert-adv-y="2458" 
d="M897 496h-528l-174 -496h-166l504 1417h207l508 -1417h-177zM848 631l-126 373q-49 143 -87 273q-36 -121 -88 -274l-129 -372h430zM638 1657l150 201h149l-205 -299h-188l-205 299h150z" />
    <glyph glyph-name="uni01CE" unicode="&#x1ce;" horiz-adv-x="1051" vert-adv-y="2458" 
d="M728 121q-53 -57 -102 -87q-90 -54 -208 -54q-163 0 -249 92q-76 81 -76 214q0 206 173 292q101 51 300 51q41 0 150 -4v28q0 113 -29 172q-52 108 -206 108q-126 0 -268 -90l-68 112q163 103 353 103q236 0 323 -141q41 -67 48 -192q3 -44 3 -127v-339q-1 -150 8 -259
h-145zM716 506q-55 4 -117 4q-166 0 -242 -44q-100 -57 -100 -176q0 -84 50 -134q52 -51 139 -51q163 0 270 159v242zM511 1296l150 201h149l-205 -299h-188l-205 299h150z" />
    <glyph glyph-name="Ucaron" unicode="&#x1d3;" horiz-adv-x="1362" vert-adv-y="2458" 
d="M172 1417h164v-860q0 -138 18 -210q36 -143 141 -196q72 -36 185 -36q207 0 289 122q65 97 65 289v891h156v-792q0 -236 -17 -314q-36 -170 -184 -259q-121 -72 -309 -72q-319 0 -443 204q-54 88 -61 247q-4 78 -4 194v792zM681 1657l150 201h149l-205 -299h-188
l-205 299h150z" />
    <glyph glyph-name="Gcaron" unicode="&#x1e6;" horiz-adv-x="1378" vert-adv-y="2458" 
d="M1207 731v-670q-94 -36 -212 -58.5t-219 -22.5q-286 0 -465 178q-200 198 -200 532q0 349 201 557q183 190 470 190q199 0 415 -100l-48 -131q-187 96 -372 96q-240 0 -369 -181q-123 -174 -123 -429q0 -291 168 -452q131 -125 339 -125q123 0 251 45v436h-279v135h443z
M772 1657l150 201h149l-205 -299h-188l-205 299h150z" />
    <glyph glyph-name="gcaron" unicode="&#x1e7;" horiz-adv-x="1153" vert-adv-y="2458" 
d="M830 1038h152q-8 -240 -8 -409v-519q0 -175 -21 -267q-34 -146 -164 -232q-109 -72 -262 -72q-207 0 -392 113l67 120q157 -108 322 -108q183 0 254 148q40 83 40 284v86q-145 -164 -317 -164q-174 0 -289 140q-113 137 -113 372q0 254 125 402q107 126 280 126
q205 0 320 -180zM818 733q-42 80 -94 125q-87 75 -187 75q-139 0 -211 -126q-63 -111 -63 -275q0 -159 66 -267q76 -122 214 -122q167 0 275 182v408zM576 1296l150 201h149l-205 -299h-188l-205 299h150z" />
    <glyph glyph-name="afii57929" unicode="&#x2bc;" horiz-adv-x="344" vert-adv-y="2458" 
d="M156 1497h182l-182 -459h-142z" />
    <glyph glyph-name="Wdieresis" unicode="&#x1e84;" horiz-adv-x="1759" vert-adv-y="2458" 
d="M387 0l-317 1417h172l203 -959q34 -161 57 -303q22 133 62 306l215 956h206l219 -950q37 -161 62 -302q19 117 58 298l208 954h158l-320 -1417h-210l-218 947q-39 172 -63 307q-24 -135 -63 -309l-218 -945h-211zM687 1802q52 0 82 -38q23 -28 23 -69q0 -40 -23 -68
q-29 -38 -83 -38q-55 0 -84 39q-23 29 -23 70q0 40 23 67q30 37 85 37zM1076 1802q52 0 82 -38q23 -28 23 -69q0 -40 -23 -68q-30 -38 -83 -38q-55 0 -84 39q-23 29 -23 70q0 40 23 67q30 37 85 37z" />
    <glyph glyph-name="underscoredbl" unicode="&#x2017;" horiz-adv-x="1024" vert-adv-y="2458" 
d="M-32 -451v109h1089v-109h-1089zM-32 -244v108h1089v-108h-1089z" />
    <glyph glyph-name="zerosuperior" unicode="&#x2070;" horiz-adv-x="737" vert-adv-y="2458" 
d="M373 1429q175 0 241 -147q42 -92 42 -254q0 -182 -53 -276q-69 -126 -235 -126q-178 0 -245 147q-42 92 -42 255q0 181 52 276q70 125 240 125zM367 1335q-88 0 -129 -97q-30 -69 -30 -211q0 -307 161 -307q160 0 160 308q0 307 -162 307z" />
    <glyph glyph-name="foursuperior" unicode="&#x2074;" horiz-adv-x="737" vert-adv-y="2458" 
d="M421 639v201h-358v110l345 467h136v-483h122v-94h-122v-201h-123zM425 934v340l-247 -340h247z" />
    <glyph glyph-name="fivesuperior" unicode="&#x2075;" horiz-adv-x="737" vert-adv-y="2458" 
d="M101 681l42 99q105 -60 182 -60q80 0 131 54q49 51 49 124q0 61 -40 103q-44 47 -117 47q-88 0 -221 -49l16 418h455v-94h-339l-8 -194q57 12 109 12q125 0 196 -62q76 -66 76 -185q0 -130 -96 -205q-80 -63 -207 -63q-114 0 -228 55z" />
    <glyph glyph-name="sixsuperior" unicode="&#x2076;" horiz-adv-x="737" vert-adv-y="2458" 
d="M589 1426v-95q-48 4 -65 4q-221 0 -285 -248q67 51 160 51q127 0 198 -81q58 -67 58 -170q0 -119 -76 -190q-75 -71 -199 -71q-153 0 -225 100q-58 82 -58 224q0 256 140 385q100 94 278 94q16 0 74 -3zM376 1045q-60 0 -104 -45q-43 -44 -43 -114q0 -71 42 -119
q42 -47 104 -47q64 0 109 47q44 48 44 118q0 72 -47 118q-43 42 -105 42z" />
    <glyph glyph-name="sevensuperior" unicode="&#x2077;" horiz-adv-x="737" vert-adv-y="2458" 
d="M146 639l351 684h-406v94h544v-94l-345 -684h-144z" />
    <glyph glyph-name="eightsuperior" unicode="&#x2078;" horiz-adv-x="737" vert-adv-y="2458" 
d="M245 1044q-138 73 -138 191q0 93 72 143q74 51 191 51q116 0 187 -52q71 -51 71 -142q0 -110 -129 -182q73 -35 107 -75q45 -54 45 -126q0 -103 -79 -165q-79 -61 -203 -61q-122 0 -202 63q-80 62 -80 164q0 138 158 191zM391 1097q110 61 110 136q0 42 -36 71
q-40 31 -97 31q-55 0 -96 -30q-38 -28 -38 -69q0 -51 68 -94q23 -15 51 -29q36 -17 38 -16zM360 997q-53 -16 -87 -42q-59 -45 -59 -106q0 -53 45 -91t111 -38q64 0 111 37q43 35 43 87q0 63 -67 105q-29 19 -69 37q-27 11 -28 11z" />
    <glyph glyph-name="ninesuperior" unicode="&#x2079;" horiz-adv-x="737" vert-adv-y="2458" 
d="M148 629v96q46 -5 66 -5q221 0 284 248q-66 -50 -160 -50q-127 0 -198 81q-58 66 -58 170q0 118 76 190q75 70 199 70q153 0 225 -101q58 -81 58 -223q0 -256 -140 -385q-100 -94 -276 -94q-12 0 -76 3zM360 1335q-62 0 -107 -47q-44 -47 -44 -118t47 -117
q43 -42 103 -42q63 0 106 45q43 44 43 113q0 71 -42 119q-42 47 -106 47z" />
    <glyph glyph-name="zeroinferior" unicode="&#x2080;" horiz-adv-x="737" vert-adv-y="2458" 
d="M373 791q175 0 241 -147q42 -92 42 -254q0 -182 -53 -277q-69 -125 -235 -125q-178 0 -245 147q-42 92 -42 255q0 181 52 276q70 125 240 125zM367 697q-88 0 -129 -97q-30 -70 -30 -211q0 -307 161 -307q160 0 160 308q0 307 -162 307z" />
    <glyph glyph-name="oneinferior" unicode="&#x2081;" horiz-adv-x="737" vert-adv-y="2458" 
d="M350 0v657l-164 -96l-46 85l220 132h107v-778h-117z" />
    <glyph glyph-name="twoinferior" unicode="&#x2082;" horiz-adv-x="737" vert-adv-y="2458" 
d="M97 0v94q181 157 264 248q133 145 133 241q0 48 -36 78q-41 35 -108 35q-84 0 -200 -69l-38 96q134 67 249 67q106 0 178 -46q82 -52 82 -153q0 -95 -62 -182q-101 -143 -304 -315h373v-94h-531z" />
    <glyph glyph-name="threeinferior" unicode="&#x2083;" horiz-adv-x="737" vert-adv-y="2458" 
d="M92 26l27 98q112 -38 196 -38q72 0 118 33q57 43 57 108q0 71 -69 108q-59 31 -154 31q-31 0 -69 -6v98q42 -4 68 -4q85 0 141 31q73 40 73 105q0 46 -39 76q-41 31 -106 31q-80 0 -190 -44l-26 98q113 40 230 40q120 0 192 -55q66 -49 66 -138q0 -133 -150 -184
q160 -42 160 -193q0 -113 -93 -178q-80 -55 -198 -55q-100 0 -234 38z" />
    <glyph glyph-name="fourinferior" unicode="&#x2084;" horiz-adv-x="737" vert-adv-y="2458" 
d="M421 0v201h-358v110l345 467h136v-483h122v-94h-122v-201h-123zM425 295v340l-247 -340h247z" />
    <glyph glyph-name="fiveinferior" unicode="&#x2085;" horiz-adv-x="737" vert-adv-y="2458" 
d="M101 42l42 99q105 -59 182 -59q80 0 131 54q49 51 49 123q0 61 -40 103q-44 47 -117 47q-89 0 -221 -49l16 418h455v-94h-339l-8 -193q57 11 109 11q125 0 196 -62q76 -66 76 -185q0 -129 -96 -204q-80 -63 -207 -63q-113 0 -228 54z" />
    <glyph glyph-name="sixinferior" unicode="&#x2086;" horiz-adv-x="737" vert-adv-y="2458" 
d="M589 788v-96q-49 5 -67 5q-220 0 -283 -248q66 50 160 50q127 0 198 -81q58 -66 58 -170q0 -118 -76 -189q-75 -71 -199 -71q-153 0 -225 100q-58 82 -58 224q0 255 140 385q100 94 275 94q12 0 77 -3zM376 406q-60 0 -104 -45q-43 -44 -43 -113q0 -71 42 -119
q42 -47 104 -47q64 0 109 47q44 48 44 117q0 73 -47 118q-44 42 -105 42z" />
    <glyph glyph-name="seveninferior" unicode="&#x2087;" horiz-adv-x="737" vert-adv-y="2458" 
d="M146 0l351 684h-406v94h544v-94l-345 -684h-144z" />
    <glyph glyph-name="eightinferior" unicode="&#x2088;" horiz-adv-x="737" vert-adv-y="2458" 
d="M245 406q-138 72 -138 191q0 93 72 143q73 51 191 51q116 0 187 -52q71 -51 71 -142q0 -111 -129 -183q73 -35 107 -75q45 -53 45 -126q0 -102 -79 -164q-79 -61 -203 -61q-122 0 -202 63q-80 62 -80 163q0 138 158 192zM391 458q110 61 110 137q0 42 -36 71
q-40 31 -97 31q-55 0 -96 -30q-38 -29 -38 -69q0 -51 68 -95q23 -15 51 -28q36 -18 38 -17zM360 358q-53 -16 -87 -42q-59 -44 -59 -105q0 -53 45 -91t111 -38q64 0 111 37q43 35 43 86q0 63 -67 106q-29 18 -69 36q-27 12 -28 11z" />
    <glyph glyph-name="nineinferior" unicode="&#x2089;" horiz-adv-x="737" vert-adv-y="2458" 
d="M148 -9v95q46 -4 65 -4q222 0 285 247q-67 -50 -160 -50q-127 0 -198 81q-58 67 -58 171q0 118 76 189q75 71 199 71q153 0 225 -101q58 -81 58 -223q0 -256 -140 -385q-100 -94 -278 -94q-3 0 -74 3zM360 697q-62 0 -107 -47q-44 -48 -44 -118q0 -72 47 -118
q43 -42 103 -42q63 0 106 45q43 44 43 113q0 72 -42 120q-42 47 -106 47z" />
    <glyph glyph-name="minus" unicode="&#x2212;" vert-adv-y="2458" 
d="M72 457v123h1036v-123h-1036z" />
    <glyph glyph-name="equivalence" unicode="&#x2261;" vert-adv-y="2458" 
d="M72 751v123h1036v-123h-1036zM72 457v123h1036v-123h-1036zM72 162v123h1036v-123h-1036z" />
    <glyph glyph-name="uniEA11" unicode="&#xea11;" horiz-adv-x="1024" vert-adv-y="2458" 
d="M319 1802q52 0 82 -38q23 -28 23 -69q0 -40 -23 -68q-29 -38 -83 -38q-55 0 -84 39q-23 29 -23 70q0 40 23 67q30 37 85 37zM708 1802q52 0 82 -38q23 -28 23 -69q0 -40 -23 -68q-29 -38 -83 -38q-55 0 -84 39q-23 29 -23 70q0 40 23 67q30 37 85 37z" />
    <glyph glyph-name="uniEA11" unicode="&#xeff6;" horiz-adv-x="1024" vert-adv-y="2458" 
d="M319 1802q52 0 82 -38q23 -28 23 -69q0 -40 -23 -68q-29 -38 -83 -38q-55 0 -84 39q-23 29 -23 70q0 40 23 67q30 37 85 37zM708 1802q52 0 82 -38q23 -28 23 -69q0 -40 -23 -68q-29 -38 -83 -38q-55 0 -84 39q-23 29 -23 70q0 40 23 67q30 37 85 37z" />
    <glyph glyph-name="uniEA12" unicode="&#xea12;" horiz-adv-x="1024" vert-adv-y="2458" 
d="M514 1802q52 0 82 -38q23 -28 23 -69q0 -40 -23 -68q-29 -38 -83 -38q-55 0 -84 39q-23 29 -23 70q0 40 23 67q30 37 85 37z" />
    <glyph glyph-name="uniEA12" unicode="&#xefed;" horiz-adv-x="1024" vert-adv-y="2458" 
d="M514 1802q52 0 82 -38q23 -28 23 -69q0 -40 -23 -68q-29 -38 -83 -38q-55 0 -84 39q-23 29 -23 70q0 40 23 67q30 37 85 37z" />
    <glyph glyph-name="uniEA13" unicode="&#xea13;" horiz-adv-x="1024" vert-adv-y="2458" 
d="M515 1802q82 0 141 -58q60 -59 60 -147t-60 -147q-59 -58 -144 -58t-144 58q-60 59 -60 147q0 90 60 147q61 58 147 58zM510 1720q-56 0 -89 -42q-27 -35 -27 -81t27 -81q33 -42 91 -42t91 42q27 35 27 81t-27 81q-33 42 -93 42z" />
    <glyph glyph-name="uniEA13" unicode="&#xeff3;" horiz-adv-x="1024" vert-adv-y="2458" 
d="M515 1802q82 0 141 -58q60 -59 60 -147t-60 -147q-59 -58 -144 -58t-144 58q-60 59 -60 147q0 90 60 147q61 58 147 58zM510 1720q-56 0 -89 -42q-27 -35 -27 -81t27 -81q33 -42 91 -42t91 42q27 35 27 81t-27 81q-33 42 -93 42z" />
    <glyph glyph-name="uniEA14" unicode="&#xea14;" horiz-adv-x="1024" vert-adv-y="2458" 
d="M590 1845h199l-299 -299h-150z" />
    <glyph glyph-name="uniEA14" unicode="&#xeff9;" horiz-adv-x="1024" vert-adv-y="2458" 
d="M590 1845h199l-299 -299h-150z" />
    <glyph glyph-name="uniEA15" unicode="&#xea15;" horiz-adv-x="1024" vert-adv-y="2458" 
d="M455 1845l250 -299h-150l-299 299h199z" />
    <glyph glyph-name="uniEA15" unicode="&#xeff8;" horiz-adv-x="1024" vert-adv-y="2458" 
d="M455 1845l250 -299h-150l-299 299h199z" />
    <glyph glyph-name="uniEA16" unicode="&#xea16;" horiz-adv-x="1024" vert-adv-y="2458" 
d="M512 1747l-149 -201h-150l205 299h188l205 -299h-149z" />
    <glyph glyph-name="uniEA16" unicode="&#xeff7;" horiz-adv-x="1024" vert-adv-y="2458" 
d="M512 1747l-149 -201h-150l205 299h188l205 -299h-149z" />
    <glyph glyph-name="uniEA17" unicode="&#xea17;" horiz-adv-x="1024" vert-adv-y="2458" 
d="M512 1657l150 201h149l-205 -299h-188l-205 299h150z" />
    <glyph glyph-name="uniEA17" unicode="&#xeff4;" horiz-adv-x="1024" vert-adv-y="2458" 
d="M512 1657l150 201h149l-205 -299h-188l-205 299h150z" />
    <glyph glyph-name="uniEA18" unicode="&#xea18;" horiz-adv-x="1024" vert-adv-y="2458" 
d="M211 1845h135q15 -193 166 -193q150 0 165 193h135q-5 -109 -47 -176q-79 -128 -253 -128q-175 0 -254 128q-42 67 -47 176z" />
    <glyph glyph-name="uniEA18" unicode="&#xefee;" horiz-adv-x="1024" vert-adv-y="2458" 
d="M211 1845h135q15 -193 166 -193q150 0 165 193h135q-5 -109 -47 -176q-79 -128 -253 -128q-175 0 -254 128q-42 67 -47 176z" />
    <glyph glyph-name="uniEA19" unicode="&#xea19;" horiz-adv-x="1024" vert-adv-y="2458" 
d="M274 1585h-106q9 78 43 128q55 81 149 81q67 0 182 -43q81 -31 117 -31q44 0 72 32q17 20 21 54h104q-9 -79 -40 -128q-52 -83 -153 -83q-62 0 -173 41q-90 33 -128 33q-62 0 -88 -84z" />
    <glyph glyph-name="uniEA19" unicode="&#xeff5;" horiz-adv-x="1024" vert-adv-y="2458" 
d="M274 1585h-106q9 78 43 128q55 81 149 81q67 0 182 -43q81 -31 117 -31q44 0 72 32q17 20 21 54h104q-9 -79 -40 -128q-52 -83 -153 -83q-62 0 -173 41q-90 33 -128 33q-62 0 -88 -84z" />
    <glyph glyph-name="uniEA1A" unicode="&#xea1a;" horiz-adv-x="1024" vert-adv-y="2458" 
d="M466 1845h190l-258 -299h-141zM786 1845h190l-258 -299h-141z" />
    <glyph glyph-name="uniEA1A" unicode="&#xeff0;" horiz-adv-x="1024" vert-adv-y="2458" 
d="M466 1845h190l-258 -299h-141zM786 1845h190l-258 -299h-141z" />
    <glyph glyph-name="uniEA1B" unicode="&#xea1b;" horiz-adv-x="1024" vert-adv-y="2458" 
d="M552 -70h186l-276 -301h-152z" />
    <glyph glyph-name="uniEA1B" unicode="&#xeff2;" horiz-adv-x="1024" vert-adv-y="2458" 
d="M552 -70h186l-276 -301h-152z" />
    <glyph glyph-name="uniEA1C" unicode="&#xea1c;" horiz-adv-x="1024" vert-adv-y="2458" 
d="M577 -322l17 -98q-95 -26 -150 -26q-89 0 -146 42q-65 48 -65 130q0 123 134 211q41 27 128 63h99q-97 -62 -130 -89q-94 -79 -94 -156q0 -44 31 -69q31 -24 77 -24q34 0 99 16z" />
    <glyph glyph-name="uniEA1C" unicode="&#xeff1;" horiz-adv-x="1024" vert-adv-y="2458" 
d="M577 -322l17 -98q-95 -26 -150 -26q-89 0 -146 42q-65 48 -65 130q0 123 134 211q41 27 128 63h99q-97 -62 -130 -89q-94 -79 -94 -156q0 -44 31 -69q31 -24 77 -24q34 0 99 16z" />
    <glyph glyph-name="uniEA1D" unicode="&#xea1d;" horiz-adv-x="1024" vert-adv-y="2458" 
d="M214 1602v119h595v-119h-595z" />
    <glyph glyph-name="uniEA1D" unicode="&#xefef;" horiz-adv-x="1024" vert-adv-y="2458" 
d="M214 1602v119h595v-119h-595z" />
    <glyph glyph-name="uniEA3F" unicode="&#xea3f;" horiz-adv-x="344" vert-adv-y="2458" 
d="M156 1497h182l-182 -459h-142z" />
    <glyph glyph-name="uniEA4E" unicode="&#xea4e;" horiz-adv-x="0" vert-adv-y="2458" 
d="M173 1595v125h1034v-125h-1034z" />
    <glyph glyph-name="Hochkomma" unicode="&#xea4f;" horiz-adv-x="1024" vert-adv-y="2458" 
d="M473 1196h-186l276 301h152z" />
    <glyph glyph-name="uniEA66" unicode="&#xea66;" horiz-adv-x="1024" vert-adv-y="2458" 
d="M552 -70h186l-276 -301h-152z" />
    <glyph glyph-name="uniEA67" unicode="&#xea67;" horiz-adv-x="344" vert-adv-y="2458" 
d="M156 1497h182l-182 -459h-142z" />
    <glyph glyph-name="Unterkomma" unicode="&#xea69;" horiz-adv-x="1024" vert-adv-y="2458" 
d="M529 -70h186l-276 -301h-152z" />
    <glyph glyph-name="scommaaccent" unicode="&#xea6e;" horiz-adv-x="862" vert-adv-y="2458" 
d="M100 51l47 123q143 -69 252 -69q79 0 137 43q62 46 62 132q0 69 -41 105q-35 31 -167 81q-105 41 -148 69q-138 87 -138 233q0 137 107 220q91 70 234 70q146 0 296 -77l-47 -123q-112 75 -235 75q-80 0 -131 -34q-60 -39 -60 -118q0 -72 59 -114q43 -30 153 -74
q122 -49 167 -81q115 -79 115 -221q0 -150 -113 -235q-100 -76 -252 -76q-147 0 -297 71zM366 -70h186l-276 -301h-152z" />
    <glyph glyph-name="glyph389" horiz-adv-x="512" vert-adv-y="2458" 
 />
    </font>
</defs>
</svg>
